<?xml version="1.0" encoding="UTF-8" standalone="no"?>
<!-- Created with Inkscape (http://www.inkscape.org/) -->

<svg
   xmlns:dc="http://purl.org/dc/elements/1.1/"
   xmlns:cc="http://creativecommons.org/ns#"
   xmlns:rdf="http://www.w3.org/1999/02/22-rdf-syntax-ns#"
   xmlns:svg="http://www.w3.org/2000/svg"
   xmlns="http://www.w3.org/2000/svg"
   xmlns:sodipodi="http://sodipodi.sourceforge.net/DTD/sodipodi-0.dtd"
   xmlns:inkscape="http://www.inkscape.org/namespaces/inkscape"
   id="svg27665"
   height="48"
   width="48"
   version="1.1"
   inkscape:version="0.48.3.1 r9886"
   sodipodi:docname="kazam-all-screens-symbolic.svg">
  <defs
     id="defs10" />
  <sodipodi:namedview
     pagecolor="#ffffff"
     bordercolor="#666666"
     borderopacity="1"
     objecttolerance="10"
     gridtolerance="10"
     guidetolerance="10"
     inkscape:pageopacity="0"
     inkscape:pageshadow="2"
     inkscape:window-width="906"
     inkscape:window-height="842"
     id="namedview8"
     showgrid="false"
     inkscape:zoom="7.375"
     inkscape:cx="3.2114685"
     inkscape:cy="12.195974"
     inkscape:window-x="49"
     inkscape:window-y="24"
     inkscape:window-maximized="0"
     inkscape:current-layer="svg27665" />
  <metadata
     id="metadata90">
    <rdf:RDF>
      <cc:Work
         rdf:about="">
        <dc:format>image/svg+xml</dc:format>
        <dc:type
           rdf:resource="http://purl.org/dc/dcmitype/StillImage" />
        <dc:title>Gnome Symbolic Icon Theme</dc:title>
      </cc:Work>
    </rdf:RDF>
  </metadata>
  <title
     id="title9167">Gnome Symbolic Icon Theme</title>
  <path
     style="font-size:medium;font-style:normal;font-variant:normal;font-weight:normal;font-stretch:normal;text-indent:0;text-align:start;text-decoration:none;line-height:normal;letter-spacing:normal;word-spacing:normal;text-transform:none;direction:ltr;block-progression:tb;writing-mode:lr-tb;text-anchor:start;baseline-shift:baseline;color:#000000;fill:#bebebe;fill-opacity:1;stroke:none;stroke-width:2;marker:none;visibility:visible;display:inline;overflow:visible;enable-background:accumulate;font-family:Sans;-inkscape-font-specification:Sans"
     d="M 1.7832509,0.76419665 C 1.1214881,0.89421373 0.59837484,1.5613208 0.61038569,2.2586083 l 0,27.1797267 c 0,0.782276 0.68765021,1.494291 1.44351741,1.494412 l 4.2854237,0 0,-2.988823 -2.8419063,0 0,-24.1909039 33.6521825,0 0,2.9888238 2.887035,0 0,-4.4832356 C 40.036521,1.4760914 39.348754,0.76419665 38.59312,0.76419665 l -36.5392169,0 c -0.044312,0 -0.08979,0 -0.1353844,0 -0.044312,0 -0.088624,0 -0.1352678,0 z M 9.0008375,8.1895364 A 1.4436684,1.4945681 0 0 0 7.8279723,9.6839481 l 0,27.1797269 a 1.4436684,1.4945681 0 0 0 1.4435174,1.494412 l 13.7586023,0 -0.406036,5.884329 -3.789248,0 -0.7217,3.128981 18.855982,0 -0.7217,-3.128981 -3.789248,0 -0.406037,-5.884329 13.758602,0 a 1.4436684,1.4945681 0 0 0 1.443518,-1.494412 l 0,-27.1797269 A 1.4436684,1.4945681 0 0 0 45.810707,8.1895364 l -36.5392173,0 a 1.4436684,1.4945681 0 0 0 -0.1352678,0 1.4436684,1.4945681 0 0 0 -0.1353844,0 z m 1.7141695,2.9888236 33.652183,0 0,24.190903 -33.652183,0 0,-24.190903 z"
     id="path3097"
     inkscape:connector-curvature="0" />
</svg>
