<?xml version="1.0" encoding="UTF-8" standalone="no"?>
<!-- Created with Inkscape (http://www.inkscape.org/) -->

<svg
   xmlns:dc="http://purl.org/dc/elements/1.1/"
   xmlns:cc="http://creativecommons.org/ns#"
   xmlns:rdf="http://www.w3.org/1999/02/22-rdf-syntax-ns#"
   xmlns:svg="http://www.w3.org/2000/svg"
   xmlns="http://www.w3.org/2000/svg"
   xmlns:sodipodi="http://sodipodi.sourceforge.net/DTD/sodipodi-0.dtd"
   xmlns:inkscape="http://www.inkscape.org/namespaces/inkscape"
   id="svg27665"
   height="48"
   width="48"
   version="1.1"
   inkscape:version="0.48.3.1 r9886"
   sodipodi:docname="kazam-fullscreen-symbolic.svg">
  <defs
     id="defs10" />
  <sodipodi:namedview
     pagecolor="#ffffff"
     bordercolor="#666666"
     borderopacity="1"
     objecttolerance="10"
     gridtolerance="10"
     guidetolerance="10"
     inkscape:pageopacity="0"
     inkscape:pageshadow="2"
     inkscape:window-width="906"
     inkscape:window-height="842"
     id="namedview8"
     showgrid="false"
     inkscape:zoom="7.375"
     inkscape:cx="3.2114685"
     inkscape:cy="12.195974"
     inkscape:window-x="49"
     inkscape:window-y="24"
     inkscape:window-maximized="0"
     inkscape:current-layer="svg27665" />
  <metadata
     id="metadata90">
    <rdf:RDF>
      <cc:Work
         rdf:about="">
        <dc:format>image/svg+xml</dc:format>
        <dc:type
           rdf:resource="http://purl.org/dc/dcmitype/StillImage" />
        <dc:title>Gnome Symbolic Icon Theme</dc:title>
      </cc:Work>
    </rdf:RDF>
  </metadata>
  <title
     id="title9167">Gnome Symbolic Icon Theme</title>
  <path
     style="font-size:medium;font-style:normal;font-variant:normal;font-weight:normal;font-stretch:normal;text-indent:0;text-align:start;text-decoration:none;line-height:normal;letter-spacing:normal;word-spacing:normal;text-transform:none;direction:ltr;block-progression:tb;writing-mode:lr-tb;text-anchor:start;baseline-shift:baseline;color:#000000;fill:#bebebe;fill-opacity:1;stroke:none;stroke-width:2;marker:none;visibility:visible;display:inline;overflow:visible;enable-background:accumulate;font-family:Sans;-inkscape-font-specification:Sans"
     d="M 2.2350038,0.80258419 A 1.6930208,1.7646076 0 0 0 1.0182712,2.5670265 l 0,32.0905735 a 1.6930208,1.7646076 0 0 0 1.69286,1.764443 l 16.1349658,0 -0.476033,6.947531 -4.443868,0 -0.846372,3.694187 22.112873,0 -0.846375,-3.694187 -4.443752,0 -0.476127,-6.947531 16.134968,0 a 1.6930208,1.7646076 0 0 0 1.69286,-1.764443 l 0,-32.0905735 a 1.6930208,1.7646076 0 0 0 -1.69286,-1.76444231 l -42.8502997,0 a 1.6930208,1.7646076 0 0 0 -0.1586935,0 1.6930208,1.7646076 0 0 0 -0.1586936,0 1.6930208,1.7646076 0 0 0 -0.1586935,0 z m 2.1689924,3.52888561 39.4645708,0 0,28.5616872 -39.4645708,0 0,-28.5616872 z M 6.4671064,6.0959127 A 0.63703222,0.66396816 0 0 0 6.096835,6.7574737 l 0,6.2306703 a 0.63703222,0.66396816 0 0 0 1.1108502,0.496261 L 13.185591,7.1986746 A 0.63703222,0.66396816 0 0 0 12.762387,6.0959127 l -6.0307242,0 a 0.63703222,0.66396816 0 0 0 -0.1587465,0 0.63703222,0.66396816 0 0 0 -0.1063386,0 z m 28.8843206,0 a 0.63703222,0.66396816 0 0 0 -0.264489,1.1027619 l 6.030732,6.2857304 a 0.63703222,0.66396816 0 0 0 1.05814,-0.496261 l 0,-6.2306703 a 0.63703222,0.66396816 0 0 0 -0.423302,-0.661561 0.63703222,0.66396816 0 0 0 -0.05204,0 0.63703222,0.66396816 0 0 0 -0.158714,0 l -5.977904,0 a 0.63703222,0.66396816 0 0 0 -0.211518,0 z M 6.6788709,23.519622 a 0.63703222,0.66396816 0 0 0 -0.5820147,0.661681 l 0,6.23067 a 0.63703222,0.66396816 0 0 0 0.4761376,0.66168 0.63703222,0.66396816 0 0 0 0.1587465,0 l 6.0307237,0 a 0.63703222,0.66396816 0 0 0 0.423206,-1.10276 L 7.207764,23.740222 A 0.63703222,0.66396816 0 0 0 6.6789289,23.519623 z m 34.7563451,0 a 0.63703222,0.66396816 0 0 0 -0.317526,0.2206 l -6.030729,6.230671 a 0.63703222,0.66396816 0 0 0 0.476011,1.102763 l 5.977904,0 a 0.63703222,0.66396816 0 0 0 0.158714,0 0.63703222,0.66396816 0 0 0 0.05204,0 0.63703222,0.66396816 0 0 0 0.423302,-0.661683 l 0,-6.230671 a 0.63703222,0.66396816 0 0 0 -0.740719,-0.661679 z"
     id="path3093"
     inkscape:connector-curvature="0" />
</svg>
