<?xml version="1.0" encoding="UTF-8" standalone="no"?>
<!-- Created with Inkscape (http://www.inkscape.org/) -->

<svg
   xmlns:dc="http://purl.org/dc/elements/1.1/"
   xmlns:cc="http://creativecommons.org/ns#"
   xmlns:rdf="http://www.w3.org/1999/02/22-rdf-syntax-ns#"
   xmlns:svg="http://www.w3.org/2000/svg"
   xmlns="http://www.w3.org/2000/svg"
   xmlns:sodipodi="http://sodipodi.sourceforge.net/DTD/sodipodi-0.dtd"
   xmlns:inkscape="http://www.inkscape.org/namespaces/inkscape"
   id="svg27665"
   height="48"
   width="48"
   version="1.1"
   inkscape:version="0.48.3.1 r9886"
   sodipodi:docname="kazam-area-symbolic.svg">
  <defs
     id="defs10" />
  <sodipodi:namedview
     pagecolor="#ffffff"
     bordercolor="#666666"
     borderopacity="1"
     objecttolerance="10"
     gridtolerance="10"
     guidetolerance="10"
     inkscape:pageopacity="0"
     inkscape:pageshadow="2"
     inkscape:window-width="906"
     inkscape:window-height="1028"
     id="namedview8"
     showgrid="false"
     inkscape:zoom="7.375"
     inkscape:cx="3.2114685"
     inkscape:cy="12.195974"
     inkscape:window-x="50"
     inkscape:window-y="24"
     inkscape:window-maximized="0"
     inkscape:current-layer="svg27665" />
  <metadata
     id="metadata90">
    <rdf:RDF>
      <cc:Work
         rdf:about="">
        <dc:format>image/svg+xml</dc:format>
        <dc:type
           rdf:resource="http://purl.org/dc/dcmitype/StillImage" />
        <dc:title>Gnome Symbolic Icon Theme</dc:title>
      </cc:Work>
    </rdf:RDF>
  </metadata>
  <title
     id="title9167">Gnome Symbolic Icon Theme</title>
  <path
     style="font-size:medium;font-style:normal;font-variant:normal;font-weight:normal;font-stretch:normal;text-indent:0;text-align:start;text-decoration:none;line-height:normal;letter-spacing:normal;word-spacing:normal;text-transform:none;direction:ltr;block-progression:tb;writing-mode:lr-tb;text-anchor:start;baseline-shift:baseline;color:#000000;fill:#bebebe;fill-opacity:1;stroke:none;stroke-width:2;marker:none;visibility:visible;display:inline;overflow:visible;enable-background:accumulate;font-family:Sans;-inkscape-font-specification:Sans"
     d="M 1.9710093,0.73483787 A 1.7029478,1.7646056 0 0 0 0.74713869,2.4991612 l 0,32.0905878 a 1.7029478,1.7646056 0 0 0 1.70279161,1.764443 l 16.2295997,0 -0.478921,6.947415 -4.469813,0 -0.851338,3.694308 22.242564,0 -0.851454,-3.694308 -4.469814,0 -0.478805,-6.947415 16.229599,0 a 1.7029478,1.7646056 0 0 0 1.702676,-1.764443 l 0,-32.0905878 A 1.7029478,1.7646056 0 0 0 45.551548,0.73483787 l -43.1016177,0 a 1.7029478,1.7646056 0 0 0 -0.1596403,0 1.7029478,1.7646056 0 0 0 -0.1596404,0 1.7029478,1.7646056 0 0 0 -0.1596403,0 z M 4.152722,4.263605 l 39.696034,0 0,28.5617 -39.696034,0 0,-28.5617 z m 14.686449,9.869801 0,1.764443 1.702791,0 0,-1.764443 -1.702791,0 z m 3.405583,0 0,1.764443 1.702792,0 0,-1.764443 -1.702792,0 z m 3.405583,0 0,1.764443 1.702676,0 0,-1.764443 -1.702676,0 z m 3.405468,0 0,1.764443 1.702791,0 0,-1.764443 -1.702791,0 z m 3.405583,0 0,1.764443 1.702792,0 0,-1.764443 -1.702792,0 z m 3.405583,0 0,1.764443 1.702792,0 0,-1.764443 -1.702792,0 z m 3.405584,0 0,1.764443 1.702675,0 0,-1.764443 -1.702675,0 z m -20.433384,3.528887 0,1.764444 1.702791,0 0,-1.764444 -1.702791,0 z m 20.433384,0 0,1.764444 1.702675,0 0,-1.764444 -1.702675,0 z m -20.433384,3.528888 0,1.764443 1.702791,0 0,-1.764443 -1.702791,0 z m 20.433384,0 0,1.764443 1.702675,0 0,-1.764443 -1.702675,0 z m -20.433384,3.528767 0,1.764443 1.702791,0 0,-1.764443 -1.702791,0 z m 20.433384,0 0,1.764443 1.702675,0 0,-1.764443 -1.702675,0 z m -20.433384,3.528887 0,1.764444 1.702791,0 0,-1.764444 -1.702791,0 z m 3.405583,0 0,1.764444 1.702792,0 0,-1.764444 -1.702792,0 z m 3.405583,0 0,1.764444 1.702676,0 0,-1.764444 -1.702676,0 z m 3.405468,0 0,1.764444 1.702791,0 0,-1.764444 -1.702791,0 z m 3.405583,0 0,1.764444 1.702792,0 0,-1.764444 -1.702792,0 z m 3.405583,0 0,1.764444 1.702792,0 0,-1.764444 -1.702792,0 z m 3.405584,0 0,1.764444 1.702675,0 0,-1.764444 -1.702675,0 z"
     id="path3085"
     inkscape:connector-curvature="0" />
</svg>
