<?xml version="1.0" encoding="UTF-8" standalone="no"?>
<!-- Created with Inkscape (http://www.inkscape.org/) -->

<svg
   xmlns:dc="http://purl.org/dc/elements/1.1/"
   xmlns:cc="http://creativecommons.org/ns#"
   xmlns:rdf="http://www.w3.org/1999/02/22-rdf-syntax-ns#"
   xmlns:svg="http://www.w3.org/2000/svg"
   xmlns="http://www.w3.org/2000/svg"
   xmlns:sodipodi="http://sodipodi.sourceforge.net/DTD/sodipodi-0.dtd"
   xmlns:inkscape="http://www.inkscape.org/namespaces/inkscape"
   id="svg27665"
   height="48"
   width="48"
   version="1.1"
   inkscape:version="0.48.3.1 r9886"
   sodipodi:docname="kazam-window-symbolic.svg">
  <defs
     id="defs10" />
  <sodipodi:namedview
     pagecolor="#ffffff"
     bordercolor="#666666"
     borderopacity="1"
     objecttolerance="10"
     gridtolerance="10"
     guidetolerance="10"
     inkscape:pageopacity="0"
     inkscape:pageshadow="2"
     inkscape:window-width="906"
     inkscape:window-height="1028"
     id="namedview8"
     showgrid="false"
     inkscape:zoom="7.375"
     inkscape:cx="3.2114685"
     inkscape:cy="12.195974"
     inkscape:window-x="50"
     inkscape:window-y="24"
     inkscape:window-maximized="0"
     inkscape:current-layer="svg27665" />
  <metadata
     id="metadata90">
    <rdf:RDF>
      <cc:Work
         rdf:about="">
        <dc:format>image/svg+xml</dc:format>
        <dc:type
           rdf:resource="http://purl.org/dc/dcmitype/StillImage" />
        <dc:title>Gnome Symbolic Icon Theme</dc:title>
      </cc:Work>
    </rdf:RDF>
  </metadata>
  <title
     id="title9167">Gnome Symbolic Icon Theme</title>
  <path
     inkscape:connector-curvature="0"
     id="path3133"
     d="M 2.2401511,0.69427608 A 1.7079604,1.7031249 0 0 0 0.74579195,2.3971969 l 0,0.6386098 0,5.1621347 0,30.4935016 a 1.7079604,1.7031249 0 0 0 1.70775565,1.702921 l 43.2284334,0 a 1.7079604,1.7031249 0 0 0 1.707872,-1.702921 l 0,-36.2942461 A 1.7079604,1.7031249 0 0 0 45.681981,0.69427608 l -1.280846,0 -41.2538736,0 -0.6937138,0 a 1.7079604,1.7031249 0 0 0 -0.2133965,0 z M 5.6022549,3.7808127 c 1.0234873,0 1.867978,0.8420998 1.867978,1.8626895 0,1.0204733 -0.8444907,1.8625732 -1.867978,1.8625732 -1.0234873,0 -1.8678614,-0.8420999 -1.8678614,-1.8625732 0,-1.0205897 0.8443741,-1.8626895 1.8678614,-1.8626895 z m 4.8031721,0 c 1.023487,0 1.867978,0.8420998 1.867978,1.8626895 0,1.0204733 -0.844491,1.8625732 -1.867978,1.8625732 -1.0234872,0 -1.8145705,-0.8420999 -1.8145705,-1.8625732 0,-1.0205897 0.7910833,-1.8626895 1.8145705,-1.8626895 z m 4.85658,0 c 1.023371,0 1.814571,0.8420998 1.814571,1.8626895 0,1.0204733 -0.7912,1.8625732 -1.814571,1.8625732 -1.023487,0 -1.867978,-0.8420999 -1.867978,-1.8625732 0,-1.0205897 0.844491,-1.8626895 1.867978,-1.8626895 z m -11.1005871,6.7586593 39.8128051,0 0,26.448934 -39.8128051,0 0,-26.448934 z"
     style="font-size:medium;font-style:normal;font-variant:normal;font-weight:normal;font-stretch:normal;text-indent:0;text-align:start;text-decoration:none;line-height:normal;letter-spacing:normal;word-spacing:normal;text-transform:none;direction:ltr;block-progression:tb;writing-mode:lr-tb;text-anchor:start;baseline-shift:baseline;color:#000000;fill:#bebebe;fill-opacity:1;stroke:none;stroke-width:1.99999988;marker:none;visibility:visible;display:inline;overflow:visible;enable-background:accumulate;font-family:Sans;-inkscape-font-specification:Sans" />
</svg>
