<?xml version="1.0" encoding="UTF-8" standalone="no"?>
<!-- Created with Inkscape (http://www.inkscape.org/) -->

<svg
   xmlns:dc="http://purl.org/dc/elements/1.1/"
   xmlns:cc="http://creativecommons.org/ns#"
   xmlns:rdf="http://www.w3.org/1999/02/22-rdf-syntax-ns#"
   xmlns:svg="http://www.w3.org/2000/svg"
   xmlns="http://www.w3.org/2000/svg"
   xmlns:sodipodi="http://sodipodi.sourceforge.net/DTD/sodipodi-0.dtd"
   xmlns:inkscape="http://www.inkscape.org/namespaces/inkscape"
   id="svg27665"
   height="48"
   width="48"
   version="1.1"
   inkscape:version="0.48.3.1 r9886"
   sodipodi:docname="kazam-screenshot-symbolic.svg">
  <defs
     id="defs10" />
  <sodipodi:namedview
     pagecolor="#ffffff"
     bordercolor="#666666"
     borderopacity="1"
     objecttolerance="10"
     gridtolerance="10"
     guidetolerance="10"
     inkscape:pageopacity="0"
     inkscape:pageshadow="2"
     inkscape:window-width="906"
     inkscape:window-height="842"
     id="namedview8"
     showgrid="false"
     inkscape:zoom="7.375"
     inkscape:cx="3.2114685"
     inkscape:cy="12.195974"
     inkscape:window-x="49"
     inkscape:window-y="24"
     inkscape:window-maximized="0"
     inkscape:current-layer="svg27665" />
  <metadata
     id="metadata90">
    <rdf:RDF>
      <cc:Work
         rdf:about="">
        <dc:format>image/svg+xml</dc:format>
        <dc:type
           rdf:resource="http://purl.org/dc/dcmitype/StillImage" />
        <dc:title>Gnome Symbolic Icon Theme</dc:title>
      </cc:Work>
    </rdf:RDF>
  </metadata>
  <title
     id="title9167">Gnome Symbolic Icon Theme</title>
  <path
     style="font-size:medium;font-style:normal;font-variant:normal;font-weight:normal;font-stretch:normal;text-indent:0;text-align:start;text-decoration:none;line-height:normal;letter-spacing:normal;word-spacing:normal;text-transform:none;direction:ltr;block-progression:tb;writing-mode:lr-tb;text-anchor:start;baseline-shift:baseline;color:#000000;fill:#bebebe;fill-opacity:1;stroke:none;stroke-width:2;marker:none;visibility:visible;display:inline;overflow:visible;enable-background:accumulate;font-family:Sans;-inkscape-font-specification:Sans"
     d="m 3.8644064,5.2807878 c -1.8303254,0 -3.35593224,1.4747568 -3.35593224,3.2437189 l 0,25.9497503 c 0,1.768962 1.52560684,3.243719 3.35593224,3.243719 l 14.7870776,0 -1.363349,6.487437 -3.355932,0 -1.677966,3.243719 23.491526,0 -1.677966,-3.243719 -3.355932,0 -1.363347,-6.487437 14.787076,0 c 1.830157,0 3.355764,-1.474757 3.355932,-3.243719 l 0,-25.9497503 c 0,-1.7689621 -1.525775,-3.2437189 -3.355932,-3.2437189 z m 0,3.2437189 40.2711876,0 0,25.9497503 -40.2711876,0 z"
     id="rect2985"
     inkscape:connector-curvature="0"
     sodipodi:nodetypes="ssssccccccccscsssccccc" />
  <rect
     style="fill:#bebebe;fill-opacity:1;fill-rule:nonzero;stroke:none"
     id="rect2984"
     width="13.423729"
     height="6.4874377"
     x="17.288168"
     y="0.41527408"
     rx="1.6779661"
     ry="1.6218594" />
  <rect
     ry="0"
     rx="0"
     y="0.41527408"
     x="8.8983374"
     height="3.2439137"
     width="6.7119627"
     id="rect2988"
     style="fill:#bebebf;fill-opacity:0.94117647;fill-rule:nonzero;stroke:none" />
  <rect
     ry="0"
     rx="0"
     y="16.633867"
     x="3.8644395"
     height="3.2436538"
     width="8.3897886"
     id="rect2995"
     style="fill:#bebebe;fill-opacity:1;fill-rule:nonzero;stroke:none" />
  <rect
     style="fill:#bebebe;fill-opacity:1;fill-rule:nonzero;stroke:none"
     id="rect2986"
     width="8.3897238"
     height="3.2436538"
     x="35.745792"
     y="16.633867"
     rx="0"
     ry="0" />
  <path
     inkscape:connector-curvature="0"
     style="fill:#bebebe;fill-opacity:1;fill-rule:nonzero;stroke:none"
     d="m 24.000001,11.768225 c -5.560276,0 -10.067798,4.356801 -10.067798,9.731157 0,5.374355 4.507522,9.731156 10.067798,9.731156 5.560276,0 10.067796,-4.356801 10.067796,-9.731156 0,-5.374356 -4.50752,-9.731157 -10.067796,-9.731157 z m 0,3.24372 c 3.706795,0 6.711864,2.904587 6.711864,6.487437 0,3.582849 -3.005069,6.487437 -6.711864,6.487437 -3.706795,0 -6.711866,-2.904588 -6.711866,-6.487437 0,-3.58285 3.005071,-6.487437 6.711866,-6.487437 z"
     id="path2992" />
</svg>
