<?xml version="1.0" encoding="UTF-8" standalone="no"?>
<!-- Created with Inkscape (http://www.inkscape.org/) -->

<svg
   xmlns:dc="http://purl.org/dc/elements/1.1/"
   xmlns:cc="http://creativecommons.org/ns#"
   xmlns:rdf="http://www.w3.org/1999/02/22-rdf-syntax-ns#"
   xmlns:svg="http://www.w3.org/2000/svg"
   xmlns="http://www.w3.org/2000/svg"
   xmlns:sodipodi="http://sodipodi.sourceforge.net/DTD/sodipodi-0.dtd"
   xmlns:inkscape="http://www.inkscape.org/namespaces/inkscape"
   width="48"
   height="48"
   id="svg27665"
   version="1.1"
   inkscape:version="0.48.2 r9819"
   sodipodi:docname="all-screens.svg">
  <defs
     id="defs27667" />
  <sodipodi:namedview
     id="base"
     pagecolor="#ffffff"
     bordercolor="#666666"
     borderopacity="1.0"
     inkscape:pageopacity="0.0"
     inkscape:pageshadow="2"
     inkscape:zoom="7.2407734"
     inkscape:cx="25.842783"
     inkscape:cy="13.663321"
     inkscape:document-units="px"
     inkscape:current-layer="layer1"
     showgrid="false"
     inkscape:window-width="1680"
     inkscape:window-height="985"
     inkscape:window-x="-8"
     inkscape:window-y="38"
     inkscape:window-maximized="1"
     inkscape:snap-bbox="true"
     inkscape:bbox-paths="true"
     inkscape:bbox-nodes="true"
     inkscape:snap-bbox-edge-midpoints="true"
     inkscape:snap-bbox-midpoints="true"
     inkscape:object-paths="true"
     inkscape:snap-intersection-paths="true"
     inkscape:object-nodes="true"
     inkscape:snap-smooth-nodes="true"
     inkscape:snap-midpoints="true"
     inkscape:snap-object-midpoints="true"
     inkscape:snap-center="true"
     inkscape:snap-global="false"
     showguides="true"
     inkscape:guide-bbox="true"
     fit-margin-top="0"
     fit-margin-left="0"
     fit-margin-right="0"
     fit-margin-bottom="0"
     inkscape:showpageshadow="false" />
  <metadata
     id="metadata27670">
    <rdf:RDF>
      <cc:Work
         rdf:about="">
        <dc:format>image/svg+xml</dc:format>
        <dc:type
           rdf:resource="http://purl.org/dc/dcmitype/StillImage" />
        <dc:title />
      </cc:Work>
    </rdf:RDF>
  </metadata>
  <g
     inkscape:label="Camada 1"
     inkscape:groupmode="layer"
     id="layer1"
     transform="translate(3162.1675,-1381.2535)">
    <path
       style="font-size:medium;font-style:normal;font-variant:normal;font-weight:normal;font-stretch:normal;text-indent:0;text-align:start;text-decoration:none;line-height:normal;letter-spacing:normal;word-spacing:normal;text-transform:none;direction:ltr;block-progression:tb;writing-mode:lr-tb;text-anchor:start;baseline-shift:baseline;color:#000000;fill:#dfdbd2;fill-opacity:1;stroke:none;stroke-width:2;marker:none;visibility:visible;display:inline;overflow:visible;enable-background:accumulate;font-family:Sans;-inkscape-font-specification:Sans"
       d="m -3157.1615,1385.9499 c -0.5675,0.1077 -1.0161,0.6603 -1.0058,1.2379 l 0,22.5144 c 0,0.648 0.5897,1.2378 1.2379,1.2379 l 3.675,0 0,-2.4758 -2.4371,0 0,-20.0386 28.8587,0 0,2.4758 2.4758,0 0,-3.7137 c -1e-4,-0.6482 -0.5899,-1.2379 -1.2379,-1.2379 l -31.3345,0 c -0.038,0 -0.077,0 -0.1161,0 -0.038,0 -0.076,0 -0.116,0 z m 6.1895,6.1508 a 1.2380295,1.2380295 0 0 0 -1.0058,1.2379 l 0,22.5144 a 1.2380295,1.2380295 0 0 0 1.2379,1.2379 l 11.7988,0 -0.3482,4.8743 -3.2495,0 -0.6189,2.5919 16.1701,0 -0.6189,-2.5919 -3.2495,0 -0.3482,-4.8743 11.7988,0 a 1.2380295,1.2380295 0 0 0 1.2379,-1.2379 l 0,-22.5144 a 1.2380295,1.2380295 0 0 0 -1.2379,-1.2379 l -31.3345,0 a 1.2380295,1.2380295 0 0 0 -0.116,0 1.2380295,1.2380295 0 0 0 -0.1161,0 z m 1.47,2.4758 28.8587,0 0,20.0386 -28.8587,0 0,-20.0386 z"
       id="path3097"
       inkscape:connector-curvature="0" />
  </g>
</svg>
