<?xml version="1.0" encoding="UTF-8" standalone="no"?>
<!-- Created with Inkscape (http://www.inkscape.org/) -->

<svg
   xmlns:dc="http://purl.org/dc/elements/1.1/"
   xmlns:cc="http://creativecommons.org/ns#"
   xmlns:rdf="http://www.w3.org/1999/02/22-rdf-syntax-ns#"
   xmlns:svg="http://www.w3.org/2000/svg"
   xmlns="http://www.w3.org/2000/svg"
   xmlns:sodipodi="http://sodipodi.sourceforge.net/DTD/sodipodi-0.dtd"
   xmlns:inkscape="http://www.inkscape.org/namespaces/inkscape"
   width="48"
   height="48"
   id="svg27665"
   version="1.1"
   inkscape:version="0.48.2 r9819"
   sodipodi:docname="area.svg">
  <defs
     id="defs27667" />
  <sodipodi:namedview
     id="base"
     pagecolor="#ffffff"
     bordercolor="#666666"
     borderopacity="1.0"
     inkscape:pageopacity="0.0"
     inkscape:pageshadow="2"
     inkscape:zoom="8"
     inkscape:cx="28.687722"
     inkscape:cy="25.643354"
     inkscape:document-units="px"
     inkscape:current-layer="layer1"
     showgrid="false"
     inkscape:window-width="1680"
     inkscape:window-height="985"
     inkscape:window-x="-8"
     inkscape:window-y="38"
     inkscape:window-maximized="1"
     inkscape:snap-bbox="true"
     inkscape:bbox-paths="true"
     inkscape:bbox-nodes="true"
     inkscape:snap-bbox-edge-midpoints="true"
     inkscape:snap-bbox-midpoints="true"
     inkscape:object-paths="true"
     inkscape:snap-intersection-paths="true"
     inkscape:object-nodes="true"
     inkscape:snap-smooth-nodes="true"
     inkscape:snap-midpoints="true"
     inkscape:snap-object-midpoints="true"
     inkscape:snap-center="true"
     inkscape:snap-global="false"
     showguides="true"
     inkscape:guide-bbox="true"
     fit-margin-top="0"
     fit-margin-left="0"
     fit-margin-right="0"
     fit-margin-bottom="0"
     inkscape:showpageshadow="false" />
  <metadata
     id="metadata27670">
    <rdf:RDF>
      <cc:Work
         rdf:about="">
        <dc:format>image/svg+xml</dc:format>
        <dc:type
           rdf:resource="http://purl.org/dc/dcmitype/StillImage" />
        <dc:title />
      </cc:Work>
    </rdf:RDF>
  </metadata>
  <g
     inkscape:label="Camada 1"
     inkscape:groupmode="layer"
     id="layer1"
     transform="translate(3162.1675,-1381.2535)">
    <path
       style="font-size:medium;font-style:normal;font-variant:normal;font-weight:normal;font-stretch:normal;text-indent:0;text-align:start;text-decoration:none;line-height:normal;letter-spacing:normal;word-spacing:normal;text-transform:none;direction:ltr;block-progression:tb;writing-mode:lr-tb;text-anchor:start;baseline-shift:baseline;color:#000000;fill:#3a3935;fill-opacity:1;stroke:none;stroke-width:2;marker:none;visibility:visible;display:inline;overflow:visible;enable-background:accumulate;font-family:Sans;-inkscape-font-specification:Sans"
       d="m -3157.1137,1386.0558 a 1.4646343,1.4646343 0 0 0 -1.0526,1.4644 l 0,26.6354 a 1.4646343,1.4646343 0 0 0 1.4645,1.4645 l 13.9584,0 -0.4119,5.7664 -3.8443,0 -0.7322,3.0663 19.1299,0 -0.7323,-3.0663 -3.8443,0 -0.4118,-5.7664 13.9584,0 a 1.4646343,1.4646343 0 0 0 1.4644,-1.4645 l 0,-26.6354 a 1.4646343,1.4646343 0 0 0 -1.4644,-1.4644 l -37.0699,0 a 1.4646343,1.4646343 0 0 0 -0.1373,0 1.4646343,1.4646343 0 0 0 -0.1373,0 1.4646343,1.4646343 0 0 0 -0.1373,0 z m 1.8764,2.9289 34.1409,0 0,23.7064 -34.1409,0 0,-23.7064 z m 12.6312,8.192 0,1.4645 1.4645,0 0,-1.4645 -1.4645,0 z m 2.929,0 0,1.4645 1.4645,0 0,-1.4645 -1.4645,0 z m 2.929,0 0,1.4645 1.4644,0 0,-1.4645 -1.4644,0 z m 2.9289,0 0,1.4645 1.4645,0 0,-1.4645 -1.4645,0 z m 2.929,0 0,1.4645 1.4645,0 0,-1.4645 -1.4645,0 z m 2.929,0 0,1.4645 1.4645,0 0,-1.4645 -1.4645,0 z m 2.929,0 0,1.4645 1.4644,0 0,-1.4645 -1.4644,0 z m -17.5739,2.929 0,1.4645 1.4645,0 0,-1.4645 -1.4645,0 z m 17.5739,0 0,1.4645 1.4644,0 0,-1.4645 -1.4644,0 z m -17.5739,2.929 0,1.4645 1.4645,0 0,-1.4645 -1.4645,0 z m 17.5739,0 0,1.4645 1.4644,0 0,-1.4645 -1.4644,0 z m -17.5739,2.9289 0,1.4645 1.4645,0 0,-1.4645 -1.4645,0 z m 17.5739,0 0,1.4645 1.4644,0 0,-1.4645 -1.4644,0 z m -17.5739,2.929 0,1.4645 1.4645,0 0,-1.4645 -1.4645,0 z m 2.929,0 0,1.4645 1.4645,0 0,-1.4645 -1.4645,0 z m 2.929,0 0,1.4645 1.4644,0 0,-1.4645 -1.4644,0 z m 2.9289,0 0,1.4645 1.4645,0 0,-1.4645 -1.4645,0 z m 2.929,0 0,1.4645 1.4645,0 0,-1.4645 -1.4645,0 z m 2.929,0 0,1.4645 1.4645,0 0,-1.4645 -1.4645,0 z m 2.929,0 0,1.4645 1.4644,0 0,-1.4645 -1.4644,0 z"
       id="path3085"
       inkscape:connector-curvature="0" />
  </g>
</svg>
