<?xml version="1.0" encoding="UTF-8" standalone="no"?>
<!-- Created with Inkscape (http://www.inkscape.org/) -->

<svg
   xmlns:dc="http://purl.org/dc/elements/1.1/"
   xmlns:cc="http://creativecommons.org/ns#"
   xmlns:rdf="http://www.w3.org/1999/02/22-rdf-syntax-ns#"
   xmlns:svg="http://www.w3.org/2000/svg"
   xmlns="http://www.w3.org/2000/svg"
   xmlns:sodipodi="http://sodipodi.sourceforge.net/DTD/sodipodi-0.dtd"
   xmlns:inkscape="http://www.inkscape.org/namespaces/inkscape"
   width="48"
   height="48"
   id="svg27665"
   version="1.1"
   inkscape:version="0.48.2 r9819"
   sodipodi:docname="sound.svg">
  <defs
     id="defs27667" />
  <sodipodi:namedview
     id="base"
     pagecolor="#ffffff"
     bordercolor="#666666"
     borderopacity="1.0"
     inkscape:pageopacity="0.0"
     inkscape:pageshadow="2"
     inkscape:zoom="11.313708"
     inkscape:cx="42.239634"
     inkscape:cy="31.164683"
     inkscape:document-units="px"
     inkscape:current-layer="layer1"
     showgrid="false"
     inkscape:window-width="1680"
     inkscape:window-height="985"
     inkscape:window-x="-8"
     inkscape:window-y="38"
     inkscape:window-maximized="1"
     inkscape:snap-bbox="true"
     inkscape:bbox-paths="true"
     inkscape:bbox-nodes="true"
     inkscape:snap-bbox-edge-midpoints="true"
     inkscape:snap-bbox-midpoints="true"
     inkscape:object-paths="true"
     inkscape:snap-intersection-paths="true"
     inkscape:object-nodes="true"
     inkscape:snap-smooth-nodes="true"
     inkscape:snap-midpoints="true"
     inkscape:snap-object-midpoints="true"
     inkscape:snap-center="true"
     inkscape:snap-global="false"
     showguides="true"
     inkscape:guide-bbox="true"
     fit-margin-top="0"
     fit-margin-left="0"
     fit-margin-right="0"
     fit-margin-bottom="0"
     inkscape:showpageshadow="false" />
  <metadata
     id="metadata27670">
    <rdf:RDF>
      <cc:Work
         rdf:about="">
        <dc:format>image/svg+xml</dc:format>
        <dc:type
           rdf:resource="http://purl.org/dc/dcmitype/StillImage" />
        <dc:title />
      </cc:Work>
    </rdf:RDF>
  </metadata>
  <g
     inkscape:label="Camada 1"
     inkscape:groupmode="layer"
     id="layer1"
     transform="translate(3162.1675,-1381.2535)">
    <path
       sodipodi:nodetypes="ssssssscccccccsccccsccsccccc"
       inkscape:connector-curvature="0"
       id="path3217"
       d="m -3138.1667,1385.2535 c -5.1266,0 -7.957,4.0866 -7.957,9.2132 l 0,9.7891 c 0,5.1266 2.8304,9.2655 7.957,9.2655 5.1267,0 8.0092,-4.1389 8.0092,-9.2655 l 0,-9.7891 c 0,-5.1266 -2.8825,-9.2132 -8.0092,-9.2132 z m -11.4641,17.8506 c -1.8391,0.1732 -3.3092,2.1077 -2.9839,3.926 1.3381,7.4669 6.6358,13.1915 14.448,13.1917 7.8116,0 13.1085,-5.726 14.4479,-13.1917 0.3265,-1.8503 -1.2133,-3.8075 -3.0884,-3.926 l 0,1.1517 c 2e-4,6.9248 -4.435,12.6157 -11.3595,12.6157 -6.9248,-2e-4 -11.3594,-5.6909 -11.3594,-12.6157 l 0,-1.1517 c -0.035,-5e-4 -0.068,-5e-4 -0.1038,0 z m 5.7058,18.7927 c -0.8771,0.082 -1.6003,0.9552 -1.518,1.8322 0.082,0.8771 0.955,1.6004 1.8321,1.5181 l 10.8883,0 c 0.885,0.017 1.6989,-0.79 1.6989,-1.6751 0,-0.8851 -0.8139,-1.6877 -1.6989,-1.6752 l -10.8883,0 c -0.052,0 -0.1059,0 -0.1575,0 -0.051,0 -0.106,0 -0.1574,0 z"
       style="font-size:medium;font-style:normal;font-variant:normal;font-weight:normal;font-stretch:normal;text-indent:0;text-align:start;text-decoration:none;line-height:normal;letter-spacing:normal;word-spacing:normal;text-transform:none;direction:ltr;block-progression:tb;writing-mode:lr-tb;text-anchor:start;baseline-shift:baseline;color:#000000;fill:#dfdbd2;fill-opacity:1;stroke:none;stroke-width:4;marker:none;visibility:visible;display:inline;overflow:visible;enable-background:accumulate;font-family:Sans;-inkscape-font-specification:Sans" />
  </g>
</svg>
