<?xml version="1.0" encoding="UTF-8" standalone="no"?>
<!-- Created with Inkscape (http://www.inkscape.org/) -->

<svg
   xmlns:dc="http://purl.org/dc/elements/1.1/"
   xmlns:cc="http://creativecommons.org/ns#"
   xmlns:rdf="http://www.w3.org/1999/02/22-rdf-syntax-ns#"
   xmlns:svg="http://www.w3.org/2000/svg"
   xmlns="http://www.w3.org/2000/svg"
   xmlns:sodipodi="http://sodipodi.sourceforge.net/DTD/sodipodi-0.dtd"
   xmlns:inkscape="http://www.inkscape.org/namespaces/inkscape"
   width="48"
   height="48"
   id="svg27665"
   version="1.1"
   inkscape:version="0.48.2 r9819"
   sodipodi:docname="video.svg">
  <defs
     id="defs27667" />
  <sodipodi:namedview
     id="base"
     pagecolor="#ffffff"
     bordercolor="#666666"
     borderopacity="1.0"
     inkscape:pageopacity="0.0"
     inkscape:pageshadow="2"
     inkscape:zoom="5.6568542"
     inkscape:cx="52.182587"
     inkscape:cy="24.121519"
     inkscape:document-units="px"
     inkscape:current-layer="layer1"
     showgrid="false"
     inkscape:window-width="1680"
     inkscape:window-height="985"
     inkscape:window-x="-8"
     inkscape:window-y="38"
     inkscape:window-maximized="1"
     inkscape:snap-bbox="true"
     inkscape:bbox-paths="true"
     inkscape:bbox-nodes="true"
     inkscape:snap-bbox-edge-midpoints="true"
     inkscape:snap-bbox-midpoints="true"
     inkscape:object-paths="true"
     inkscape:snap-intersection-paths="true"
     inkscape:object-nodes="true"
     inkscape:snap-smooth-nodes="true"
     inkscape:snap-midpoints="true"
     inkscape:snap-object-midpoints="true"
     inkscape:snap-center="true"
     inkscape:snap-global="false"
     showguides="true"
     inkscape:guide-bbox="true"
     fit-margin-top="0"
     fit-margin-left="0"
     fit-margin-right="0"
     fit-margin-bottom="0"
     inkscape:showpageshadow="false" />
  <metadata
     id="metadata27670">
    <rdf:RDF>
      <cc:Work
         rdf:about="">
        <dc:format>image/svg+xml</dc:format>
        <dc:type
           rdf:resource="http://purl.org/dc/dcmitype/StillImage" />
        <dc:title />
      </cc:Work>
    </rdf:RDF>
  </metadata>
  <g
     inkscape:label="Camada 1"
     inkscape:groupmode="layer"
     id="layer1"
     transform="translate(3162.1675,-1381.2535)">
    <path
       style="fill:#dfdbd2;fill-opacity:1;fill-rule:nonzero;stroke:none"
       d="m -3156.4418,1392.2233 c -0.963,0 -1.7257,0.7626 -1.7257,1.7255 l 0,22.6101 c 0,0.9629 0.7627,1.7255 1.7257,1.7255 l 27.3443,0 c 0.9629,0 1.7255,-0.7626 1.7255,-1.7255 l 0,-5.0441 8.1858,3.7167 c 0.4241,0.2064 1.0061,-0.1479 1.0175,-0.6195 l 0,-18.672 c 0.024,-0.3852 -0.3221,-0.7529 -0.7079,-0.7524 -0.061,0.014 -0.1203,0.022 -0.177,0.044 -0.045,0.014 -0.091,0.026 -0.133,0.044 l -8.1858,3.7166 0,-5.0441 c 0,-0.9629 -0.7626,-1.7255 -1.7255,-1.7255 l -27.3443,0 z m 2.0795,2.168 c 0.9758,0 1.7699,0.7941 1.7699,1.7699 0,0.9757 -0.7941,1.7699 -1.7699,1.7699 -0.9757,0 -1.7698,-0.7942 -1.7698,-1.7699 0,-0.9758 0.7941,-1.7699 1.7698,-1.7699 z"
       id="path3219"
       inkscape:connector-curvature="0" />
  </g>
</svg>
