<?xml version="1.0" encoding="UTF-8" standalone="no"?>
<!-- Created with Inkscape (http://www.inkscape.org/) -->

<svg
   xmlns:dc="http://purl.org/dc/elements/1.1/"
   xmlns:cc="http://creativecommons.org/ns#"
   xmlns:rdf="http://www.w3.org/1999/02/22-rdf-syntax-ns#"
   xmlns:svg="http://www.w3.org/2000/svg"
   xmlns="http://www.w3.org/2000/svg"
   xmlns:sodipodi="http://sodipodi.sourceforge.net/DTD/sodipodi-0.dtd"
   xmlns:inkscape="http://www.inkscape.org/namespaces/inkscape"
   width="343.31451"
   height="94.683746"
   id="svg5304"
   version="1.1"
   inkscape:version="0.47 r22583"
   sodipodi:docname="kazamtextonly_black.svg">
  <defs
     id="defs5306" />
  <sodipodi:namedview
     id="base"
     pagecolor="#ffffff"
     bordercolor="#666666"
     borderopacity="1.0"
     inkscape:pageopacity="0.0"
     inkscape:pageshadow="2"
     inkscape:zoom="0.77472525"
     inkscape:cx="168.49468"
     inkscape:cy="-44.628858"
     inkscape:current-layer="layer1"
     inkscape:document-units="px"
     showgrid="false"
     fit-margin-top="0"
     fit-margin-left="0"
     fit-margin-right="0"
     fit-margin-bottom="0"
     inkscape:window-width="1024"
     inkscape:window-height="714"
     inkscape:window-x="1024"
     inkscape:window-y="24"
     inkscape:window-maximized="1" />
  <metadata
     id="metadata5309">
    <rdf:RDF>
      <cc:Work
         rdf:about="">
        <dc:format>image/svg+xml</dc:format>
        <dc:type
           rdf:resource="http://purl.org/dc/dcmitype/StillImage" />
        <dc:title />
      </cc:Work>
    </rdf:RDF>
  </metadata>
  <g
     id="layer1"
     inkscape:label="Layer 1"
     inkscape:groupmode="layer"
     transform="translate(-167.67608,-184.40672)">
    <path
       id="path5268"
       style="fill:#000000;fill-opacity:1;fill-rule:nonzero;stroke:none"
       d="m 270.93983,256.82672 c -0.4025,1.4775 -0.67,3.22 -0.67,4.29375 -2.68375,3.755 -5.63375,6.84 -8.7175,6.84 -3.3525,0 -7.7775,-1.47625 -7.7775,-9.5225 0,-18.24 8.04625,-39.56375 18.10375,-39.56375 1.8775,0 4.42625,0.53625 6.57125,2.41375 l -7.51,35.53875 z m 23.335,9.5225 c -3.755,0 -4.8275,-2.145 -4.8275,-4.96125 0,-1.47625 0.26875,-2.95 0.67,-4.56125 l 9.65625,-45.5975 -19.1775,0 -0.805,3.4875 c -2.41375,-2.01125 -5.76625,-3.3525 -8.985,-3.3525 -26.82125,0 -35.1375,27.6275 -35.1375,50.695 0,1.07 0.0763,2.16375 0.22875,3.25375 -0.99625,0.485 -2.00625,0.7675 -3.0425,0.7675 -5.23,0 -6.705,-2.01 -6.705,-4.96 0,-1.3425 0.2675,-2.81625 0.67,-4.29375 l 1.8775,-7.64375 c 0.2675,-1.07375 0.4025,-2.27875 0.4025,-3.3525 0,-8.85 -8.315,-16.63 -15.5575,-16.63 -1.20625,0 -2.27875,0.135 -3.48625,0.4025 l 27.22375,-18.37375 -14.48375,0 c 0,-0.1325 -15.825,12.07 -25.8825,20.1175 l 10.0575,-46.94 -19.84875,2.6825 -19.44625,91.1975 19.3125,0 7.645,-36.07625 c 2.81625,-1.8775 5.23,-2.95125 8.5825,-2.95125 3.62125,0 6.17,3.085 6.17,7.9125 0,1.07375 -0.135,2.28 -0.4025,3.4875 l -1.47625,6.1675 c -0.67,2.55 -0.9375,4.96375 -0.9375,7.10875 0,9.79 6.43625,14.35125 16.7625,14.35125 4.5025,0 9.45,-3.30625 14.11875,-7.56 2.19875,4.69625 6.6875,8.36375 14.84625,8.36375 8.18125,0 14.21625,-5.5 18.24,-10.9975 1.34125,6.17 5.4975,10.19375 13.2775,10.19375 4.55875,0 10.19125,-0.80625 13.9475,-12.34 -1.0725,0.4025 -2.54875,0.4025 -3.4875,0.4025"
       inkscape:connector-curvature="0" />
    <path
       style="fill:#000000;fill-opacity:1;fill-rule:nonzero;stroke:none"
       d="M 39.28125 0 L 19.4375 2.6875 L 0 93.875 L 19.3125 93.875 L 26.96875 57.8125 C 29.785 55.935 32.17875 54.84375 35.53125 54.84375 C 39.1525 54.84375 41.71875 57.9225 41.71875 62.75 C 41.71875 63.82375 41.58 65.0425 41.3125 66.25 L 39.84375 72.40625 C 39.17375 74.95625 38.90625 77.38625 38.90625 79.53125 C 38.90625 89.32125 45.33 93.875 55.65625 93.875 C 60.15875 93.875 65.1125 90.56625 69.78125 86.3125 C 71.98 91.00875 76.46625 94.6875 84.625 94.6875 C 92.80625 94.6875 98.85125 89.185 102.875 83.6875 C 104.21625 89.8575 108.345 93.875 116.125 93.875 C 120.68375 93.875 126.3375 93.065 130.09375 81.53125 C 129.02125 81.93375 127.5325 81.9375 126.59375 81.9375 C 122.83875 81.9375 121.78125 79.785 121.78125 76.96875 C 121.78125 75.4925 122.03625 74.0175 122.4375 72.40625 L 132.09375 26.8125 L 112.90625 26.8125 L 112.125 30.3125 C 109.71125 28.30125 106.34375 26.96875 103.125 26.96875 C 76.30375 26.96875 68 54.58875 68 77.65625 C 68 78.72625 68.0663 79.81625 68.21875 80.90625 C 67.2225 81.39125 66.22375 81.6875 65.1875 81.6875 C 59.9575 81.6875 58.46875 79.66875 58.46875 76.71875 C 58.46875 75.37625 58.75375 73.88375 59.15625 72.40625 L 61.03125 64.78125 C 61.29875 63.7075 61.4375 62.51125 61.4375 61.4375 C 61.4375 52.5875 53.1175 44.78125 45.875 44.78125 C 44.66875 44.78125 43.5825 44.92 42.375 45.1875 L 69.59375 26.8125 L 55.125 26.8125 C 55.125 26.68 39.3075 38.89 29.25 46.9375 L 39.28125 0 z M 151.40625 26.8125 C 140.67625 26.8125 135.71875 32.44 135.71875 39.28125 C 135.71875 43.5725 138.275 47.0625 142.03125 47.0625 C 146.3225 47.0625 150.46875 45.33375 150.46875 39.03125 C 150.46875 36.75 149.39625 35.125 148.1875 35.125 C 148.1875 32.7125 151.40625 32.1875 155.5625 32.1875 C 158.6475 32.1875 162.25875 32.33625 165.34375 32.46875 L 130.09375 93.875 L 166.15625 93.875 C 175.575 93.875 180.55 89.53125 181.625 83.84375 C 183.32875 89.66125 187.8575 94.6875 197.40625 94.6875 C 205.5875 94.6875 211.6325 89.185 215.65625 83.6875 C 217.39875 90.66125 223.28125 93.875 232 93.875 C 236.07375 93.875 240.8725 91.16875 245.5625 87.5 L 244.21875 93.875 L 263.53125 93.875 L 275.0625 39.6875 C 277.74625 37.8075 280.00125 36.875 283.21875 36.875 C 286.83875 36.875 289.40625 39.95375 289.40625 44.78125 C 289.40625 45.85625 289.26875 47.07625 289 48.28125 L 279.34375 93.875 L 298.78125 93.875 L 308.71875 46.8125 C 308.8525 45.875 308.96875 44.93875 308.96875 44 C 308.96875 42.39125 308.715 40.76625 308.3125 39.15625 C 310.72625 37.68125 312.86125 36.875 315.8125 36.875 C 319.43375 36.875 322 39.95375 322 44.78125 C 322 45.85625 321.86125 47.07625 321.59375 48.28125 L 316.5 72.40625 C 315.96375 74.95625 315.6875 77.105 315.6875 79.25 C 315.6875 89.3075 320.66 93.875 329.375 93.875 C 333.93875 93.875 339.55625 93.065 343.3125 81.53125 C 342.23875 81.93375 340.7525 81.9375 339.8125 81.9375 C 335.92375 81.9375 334.875 80.0625 334.875 77.78125 C 334.875 74.83125 340.64125 51.23875 341.3125 46.8125 C 341.445 45.73875 341.5625 44.79125 341.5625 43.71875 C 341.5625 34.59875 333.53125 26.8125 326.15625 26.8125 C 319.58625 26.8125 312.72375 30.845 306.6875 35.40625 C 303.73875 30.30875 298.5225 26.8125 293.5625 26.8125 C 287.795 26.8125 281.61125 30.0475 276.25 33.9375 L 277.75 26.8125 L 258.4375 26.8125 L 247.21875 79.625 C 245.22 80.8675 243.29375 81.6875 241.53125 81.6875 C 236.1675 81.6875 234.8125 79.54375 234.8125 76.59375 C 234.8125 75.38625 235.075 73.88375 235.34375 72.40625 L 245 26.8125 L 225.71875 26.8125 L 224.90625 30.3125 C 222.49125 28.30125 219.12375 26.96875 215.90625 26.96875 C 189.3525 26.96875 180.95 54.015 180.78125 76.9375 C 179.695 74.935 177.86375 73.625 175.5625 73.625 C 171.27125 73.625 166.96875 75.5075 166.96875 81.8125 C 166.96875 84.09125 168.1675 85.5625 169.375 85.5625 C 169.375 87.97625 166.1575 88.5 162 88.5 C 158.78125 88.5 155.30375 88.38625 152.21875 88.25 L 187.5 26.8125 L 151.40625 26.8125 z M 104.1875 34.46875 C 106.065 34.46875 108.63625 34.9975 110.78125 36.875 L 103.25 72.40625 C 102.8475 73.88375 102.59375 75.645 102.59375 76.71875 C 99.91 80.47375 96.95875 83.5625 93.875 83.5625 C 90.5225 83.5625 86.09375 82.0775 86.09375 74.03125 C 86.09375 55.79125 94.13 34.46875 104.1875 34.46875 z M 217 34.46875 C 218.8775 34.46875 221.41625 34.9975 223.5625 36.875 L 216.03125 72.40625 C 215.63125 74.0175 215.385 75.5025 215.25 76.84375 C 212.70125 80.59875 209.7425 83.5625 206.65625 83.5625 C 203.305 83.5625 198.875 82.0775 198.875 74.03125 C 198.875 55.79125 206.94375 34.46875 217 34.46875 z "
       transform="translate(167.67608,184.40672)"
       id="path5272" />
    <path
       id="path5276"
       style="fill:#000000;fill-opacity:1;fill-rule:nonzero;stroke:none"
       d="m 383.72058,256.82672 c -0.4,1.61125 -0.66875,3.085 -0.80375,4.42625 -2.54875,3.755 -5.4975,6.7075 -8.58375,6.7075 -3.35125,0 -7.775,-1.47625 -7.775,-9.5225 0,-18.24 8.04625,-39.56375 18.1025,-39.56375 1.8775,0 4.42625,0.53625 6.5725,2.41375 l -7.5125,35.53875 z m 123.78125,9.5225 c -3.88875,0 -4.96,-1.87625 -4.96,-4.1575 0,-2.95 5.76625,-26.5525 6.4375,-30.97875 0.1325,-1.07375 0.26875,-2.0125 0.26875,-3.085 0,-9.12 -8.05,-16.89875 -15.425,-16.89875 -6.57,0 -13.41,4.02375 -19.44625,8.585 -2.94875,-5.0975 -8.18125,-8.585 -13.14125,-8.585 -5.7675,0 -11.93875,3.21875 -17.3,7.10875 l 1.475,-7.10875 -19.3125,0 -11.19125,52.7875 c -1.99875,1.2425 -3.94,2.06375 -5.7025,2.06375 -5.36375,0 -6.7075,-2.145 -6.7075,-5.095 0,-1.2075 0.26875,-2.68125 0.5375,-4.15875 l 9.65625,-45.5975 -19.31125,0 -0.80625,3.4875 c -2.415,-2.01125 -5.76625,-3.3525 -8.98375,-3.3525 -26.55375,0 -34.96125,27.065 -35.13,49.9875 -1.08625,-2.0025 -2.9325,-3.31625 -5.23375,-3.31625 -4.29125,0 -8.5825,1.87625 -8.5825,8.18125 0,2.27875 1.20625,3.75375 2.41375,3.75375 0,2.41375 -3.21875,2.95125 -7.37625,2.95125 -3.21875,0 -6.705,-0.13375 -9.79,-0.27 l 35.2725,-61.4225 -36.07625,0 c -10.73,0 -15.6925,5.6325 -15.6925,12.47375 0,4.29125 2.5475,7.77875 6.30375,7.77875 4.29125,0 8.44875,-1.745 8.44875,-8.0475 0,-2.28125 -1.07125,-3.89 -2.28,-3.89 0,-2.4125 3.22,-2.95125 7.37625,-2.95125 3.085,0 6.705,0.13625 9.79,0.26875 l -35.27125,61.425 36.07625,0 c 9.41875,0 14.39125,-4.34375 15.46625,-10.03125 1.70375,5.8175 6.2275,10.835 15.77625,10.835 8.18125,0 14.21625,-5.5 18.24,-10.9975 1.7425,6.97375 7.64375,10.19375 16.3625,10.19375 4.07375,0 8.86125,-2.7125 13.55125,-6.38125 l -1.3525,6.38125 19.3125,0 11.5325,-54.18125 c 2.68375,-1.88 4.96375,-2.8175 8.18125,-2.8175 3.62,0 6.17,3.085 6.17,7.9125 0,1.075 -0.135,2.28125 -0.40375,3.48625 l -9.655,45.6 19.445,0 9.925,-47.07375 c 0.13375,-0.9375 0.26875,-1.8775 0.26875,-2.81625 0,-1.60875 -0.26875,-3.21875 -0.67125,-4.82875 2.41375,-1.475 4.56,-2.28 7.51125,-2.28 3.62125,0 6.1675,3.085 6.1675,7.9125 0,1.075 -0.1325,2.28125 -0.4,3.48625 l -5.09875,24.14 c -0.53625,2.55 -0.8025,4.69625 -0.8025,6.84125 0,10.0575 4.96125,14.61875 13.67625,14.61875 4.56375,0 10.19375,-0.80625 13.95,-12.34 -1.07375,0.4025 -2.54875,0.4025 -3.48875,0.4025"
       inkscape:connector-curvature="0" />
  </g>
</svg>
