<?xml version="1.0" encoding="UTF-8" standalone="no"?>
<!-- Created with Inkscape (http://www.inkscape.org/) -->

<svg
   xmlns:dc="http://purl.org/dc/elements/1.1/"
   xmlns:cc="http://creativecommons.org/ns#"
   xmlns:rdf="http://www.w3.org/1999/02/22-rdf-syntax-ns#"
   xmlns:svg="http://www.w3.org/2000/svg"
   xmlns="http://www.w3.org/2000/svg"
   xmlns:sodipodi="http://sodipodi.sourceforge.net/DTD/sodipodi-0.dtd"
   xmlns:inkscape="http://www.inkscape.org/namespaces/inkscape"
   width="343.31451"
   height="94.683746"
   id="svg5304"
   version="1.1"
   inkscape:version="0.48.0 r9654"
   sodipodi:docname="kazamtextonly_black.svg">
  <defs
     id="defs5306">
    <clipPath
       clipPathUnits="userSpaceOnUse"
       id="clipPath5262">
      <path
         inkscape:connector-curvature="0"
         d="M 0,480 640,480 640,0 0,0 0,480 z"
         id="path5264" />
    </clipPath>
  </defs>
  <sodipodi:namedview
     id="base"
     pagecolor="#ffffff"
     bordercolor="#666666"
     borderopacity="1.0"
     inkscape:pageopacity="0.0"
     inkscape:pageshadow="2"
     inkscape:zoom="1.5494505"
     inkscape:cx="147.76155"
     inkscape:cy="-3.6004214"
     inkscape:current-layer="layer1"
     inkscape:document-units="px"
     showgrid="false"
     fit-margin-top="0"
     fit-margin-left="0"
     fit-margin-right="0"
     fit-margin-bottom="0"
     inkscape:window-width="1280"
     inkscape:window-height="919"
     inkscape:window-x="0"
     inkscape:window-y="1"
     inkscape:window-maximized="1" />
  <metadata
     id="metadata5309">
    <rdf:RDF>
      <cc:Work
         rdf:about="">
        <dc:format>image/svg+xml</dc:format>
        <dc:type
           rdf:resource="http://purl.org/dc/dcmitype/StillImage" />
        <dc:title />
      </cc:Work>
    </rdf:RDF>
  </metadata>
  <g
     id="layer1"
     inkscape:label="Layer 1"
     inkscape:groupmode="layer"
     transform="translate(-167.67608,-184.40672)">
    <g
       transform="matrix(1.25,0,0,-1.25,-60.666667,376.73759)"
       id="g5258"
       style="fill:#000000">
      <g
         id="g5260"
         clip-path="url(#clipPath5262)"
         style="fill:#000000">
        <g
           id="g5266"
           transform="translate(265.2852,95.9287)"
           style="fill:#000000">
          <path
             inkscape:connector-curvature="0"
             d="m 0,0 c -0.322,-1.182 -0.536,-2.576 -0.536,-3.435 -2.147,-3.004 -4.507,-5.472 -6.974,-5.472 -2.682,0 -6.222,1.181 -6.222,7.618 0,14.592 6.437,31.651 14.483,31.651 1.502,0 3.541,-0.429 5.257,-1.931 L 0,0 z m 18.668,-7.618 c -3.004,0 -3.862,1.716 -3.862,3.969 0,1.181 0.215,2.36 0.536,3.649 l 7.725,36.478 -15.342,0 -0.644,-2.79 c -1.931,1.609 -4.613,2.682 -7.188,2.682 -21.457,0 -28.11,-22.102 -28.11,-40.556 0,-0.856 0.061,-1.731 0.183,-2.603 -0.797,-0.388 -1.605,-0.614 -2.434,-0.614 -4.184,0 -5.364,1.608 -5.364,3.968 0,1.074 0.214,2.253 0.536,3.435 l 1.502,6.115 c 0.214,0.859 0.322,1.823 0.322,2.682 0,7.08 -6.652,13.304 -12.446,13.304 -0.965,0 -1.823,-0.108 -2.789,-0.322 l 21.779,14.699 -11.587,0 c 0,0.106 -12.66,-9.656 -20.706,-16.094 l 8.046,37.552 -15.879,-2.146 -15.557,-72.958 15.45,0 6.116,28.861 c 2.253,1.502 4.184,2.361 6.866,2.361 2.897,0 4.936,-2.468 4.936,-6.33 0,-0.859 -0.108,-1.824 -0.322,-2.79 L -50.746,0 c -0.536,-2.04 -0.75,-3.971 -0.75,-5.687 0,-7.832 5.149,-11.481 13.41,-11.481 3.602,0 7.56,2.645 11.295,6.048 1.759,-3.757 5.35,-6.691 11.877,-6.691 6.545,0 11.373,4.4 14.592,8.798 1.073,-4.936 4.398,-8.155 10.622,-8.155 3.647,0 8.153,0.645 11.158,9.872 -0.858,-0.322 -2.039,-0.322 -2.79,-0.322"
             style="fill:#000000;fill-opacity:1;fill-rule:nonzero;stroke:none"
             id="path5268" />
        </g>
        <g
           id="g5270"
           transform="translate(265.2852,95.9287)"
           style="fill:#000000">
          <path
             inkscape:connector-curvature="0"
             d="m 0,0 c -0.322,-1.182 -0.536,-2.576 -0.536,-3.435 -2.147,-3.004 -4.507,-5.472 -6.974,-5.472 -2.682,0 -6.222,1.181 -6.222,7.618 0,14.592 6.437,31.651 14.483,31.651 1.502,0 3.541,-0.429 5.257,-1.931 L 0,0 z m 18.668,-7.618 c -3.004,0 -3.862,1.716 -3.862,3.969 0,1.181 0.215,2.36 0.536,3.649 l 7.725,36.478 -15.342,0 -0.644,-2.79 c -1.931,1.609 -4.613,2.682 -7.188,2.682 -21.457,0 -28.11,-22.102 -28.11,-40.556 0,-0.856 0.061,-1.731 0.183,-2.603 -0.797,-0.388 -1.605,-0.614 -2.434,-0.614 -4.184,0 -5.364,1.608 -5.364,3.968 0,1.074 0.214,2.253 0.536,3.435 l 1.502,6.115 c 0.214,0.859 0.322,1.823 0.322,2.682 0,7.08 -6.652,13.304 -12.446,13.304 -0.965,0 -1.823,-0.108 -2.789,-0.322 l 21.779,14.699 -11.587,0 c 0,0.106 -12.66,-9.656 -20.706,-16.094 l 8.046,37.552 -15.879,-2.146 -15.557,-72.958 15.45,0 6.116,28.861 c 2.253,1.502 4.184,2.361 6.866,2.361 2.897,0 4.936,-2.468 4.936,-6.33 0,-0.859 -0.108,-1.824 -0.322,-2.79 L -50.746,0 c -0.536,-2.04 -0.75,-3.971 -0.75,-5.687 0,-7.832 5.149,-11.481 13.41,-11.481 3.602,0 7.56,2.645 11.295,6.048 1.759,-3.757 5.35,-6.691 11.877,-6.691 6.545,0 11.373,4.4 14.592,8.798 1.073,-4.936 4.398,-8.155 10.622,-8.155 3.647,0 8.153,0.645 11.158,9.872 -0.858,-0.322 -2.039,-0.322 -2.79,-0.322"
             style="fill:#000000;fill-opacity:1;fill-rule:nonzero;stroke:none"
             id="path5272" />
        </g>
        <g
           id="g5274"
           transform="translate(355.5098,95.9287)"
           style="fill:#000000">
          <path
             inkscape:connector-curvature="0"
             d="m 0,0 c -0.32,-1.289 -0.535,-2.468 -0.643,-3.541 -2.039,-3.004 -4.398,-5.366 -6.867,-5.366 -2.681,0 -6.22,1.181 -6.22,7.618 0,14.592 6.437,31.651 14.482,31.651 1.502,0 3.541,-0.429 5.258,-1.931 L 0,0 z m 99.025,-7.618 c -3.111,0 -3.968,1.501 -3.968,3.326 0,2.36 4.613,21.242 5.15,24.783 0.106,0.859 0.215,1.61 0.215,2.468 0,7.296 -6.44,13.519 -12.34,13.519 -5.256,0 -10.728,-3.219 -15.557,-6.868 -2.359,4.078 -6.545,6.868 -10.513,6.868 -4.614,0 -9.551,-2.575 -13.84,-5.687 l 1.18,5.687 -15.45,0 -8.953,-42.23 c -1.599,-0.994 -3.152,-1.651 -4.562,-1.651 -4.291,0 -5.366,1.716 -5.366,4.076 0,0.966 0.215,2.145 0.43,3.327 l 7.725,36.478 -15.449,0 -0.645,-2.79 c -1.932,1.609 -4.613,2.682 -7.187,2.682 -21.243,0 -27.969,-21.652 -28.104,-39.99 -0.869,1.602 -2.346,2.653 -4.187,2.653 -3.433,0 -6.866,-1.501 -6.866,-6.545 0,-1.823 0.965,-3.003 1.931,-3.003 0,-1.931 -2.575,-2.361 -5.901,-2.361 -2.575,0 -5.364,0.107 -7.832,0.216 l 28.218,49.138 -28.861,0 c -8.584,0 -12.554,-4.506 -12.554,-9.979 0,-3.433 2.038,-6.223 5.043,-6.223 3.433,0 6.759,1.396 6.759,6.438 0,1.825 -0.857,3.112 -1.824,3.112 0,1.93 2.576,2.361 5.901,2.361 2.468,0 5.364,-0.109 7.832,-0.215 l -28.217,-49.14 28.861,0 c 7.535,0 11.513,3.475 12.373,8.025 1.363,-4.654 4.982,-8.668 12.621,-8.668 6.545,0 11.373,4.4 14.592,8.798 1.394,-5.579 6.115,-8.155 13.09,-8.155 3.259,0 7.089,2.17 10.841,5.105 l -1.082,-5.105 15.45,0 9.226,43.345 c 2.147,1.504 3.971,2.254 6.545,2.254 2.896,0 4.936,-2.468 4.936,-6.33 0,-0.86 -0.108,-1.825 -0.323,-2.789 l -7.724,-36.48 15.556,0 7.94,37.659 c 0.107,0.75 0.215,1.502 0.215,2.253 0,1.287 -0.215,2.575 -0.537,3.863 1.931,1.18 3.648,1.824 6.009,1.824 2.897,0 4.934,-2.468 4.934,-6.33 0,-0.86 -0.106,-1.825 -0.32,-2.789 L 80.357,0 c -0.429,-2.04 -0.642,-3.757 -0.642,-5.473 0,-8.046 3.969,-11.695 10.941,-11.695 3.651,0 8.155,0.645 11.16,9.872 -0.859,-0.322 -2.039,-0.322 -2.791,-0.322"
             style="fill:#000000;fill-opacity:1;fill-rule:nonzero;stroke:none"
             id="path5276" />
        </g>
        <g
           id="g5278"
           transform="translate(355.5098,95.9287)"
           style="fill:#000000">
          <path
             inkscape:connector-curvature="0"
             d="m 0,0 c -0.32,-1.289 -0.535,-2.468 -0.643,-3.541 -2.039,-3.004 -4.398,-5.366 -6.867,-5.366 -2.681,0 -6.22,1.181 -6.22,7.618 0,14.592 6.437,31.651 14.482,31.651 1.502,0 3.541,-0.429 5.258,-1.931 L 0,0 z m 99.025,-7.618 c -3.111,0 -3.968,1.501 -3.968,3.326 0,2.36 4.613,21.242 5.15,24.783 0.106,0.859 0.215,1.61 0.215,2.468 0,7.296 -6.44,13.519 -12.34,13.519 -5.256,0 -10.728,-3.219 -15.557,-6.868 -2.359,4.078 -6.545,6.868 -10.513,6.868 -4.614,0 -9.551,-2.575 -13.84,-5.687 l 1.18,5.687 -15.45,0 -8.953,-42.23 c -1.599,-0.994 -3.152,-1.651 -4.562,-1.651 -4.291,0 -5.366,1.716 -5.366,4.076 0,0.966 0.215,2.145 0.43,3.327 l 7.725,36.478 -15.449,0 -0.645,-2.79 c -1.932,1.609 -4.613,2.682 -7.187,2.682 -21.243,0 -27.969,-21.652 -28.104,-39.99 -0.869,1.602 -2.346,2.653 -4.187,2.653 -3.433,0 -6.866,-1.501 -6.866,-6.545 0,-1.823 0.965,-3.003 1.931,-3.003 0,-1.931 -2.575,-2.361 -5.901,-2.361 -2.575,0 -5.364,0.107 -7.832,0.216 l 28.218,49.138 -28.861,0 c -8.584,0 -12.554,-4.506 -12.554,-9.979 0,-3.433 2.038,-6.223 5.043,-6.223 3.433,0 6.759,1.396 6.759,6.438 0,1.825 -0.857,3.112 -1.824,3.112 0,1.93 2.576,2.361 5.901,2.361 2.468,0 5.364,-0.109 7.832,-0.215 l -28.217,-49.14 28.861,0 c 7.535,0 11.513,3.475 12.373,8.025 1.363,-4.654 4.982,-8.668 12.621,-8.668 6.545,0 11.373,4.4 14.592,8.798 1.394,-5.579 6.115,-8.155 13.09,-8.155 3.259,0 7.089,2.17 10.841,5.105 l -1.082,-5.105 15.45,0 9.226,43.345 c 2.147,1.504 3.971,2.254 6.545,2.254 2.896,0 4.936,-2.468 4.936,-6.33 0,-0.86 -0.108,-1.825 -0.323,-2.789 l -7.724,-36.48 15.556,0 7.94,37.659 c 0.107,0.75 0.215,1.502 0.215,2.253 0,1.287 -0.215,2.575 -0.537,3.863 1.931,1.18 3.648,1.824 6.009,1.824 2.897,0 4.934,-2.468 4.934,-6.33 0,-0.86 -0.106,-1.825 -0.32,-2.789 L 80.357,0 c -0.429,-2.04 -0.642,-3.757 -0.642,-5.473 0,-8.046 3.969,-11.695 10.941,-11.695 3.651,0 8.155,0.645 11.16,9.872 -0.859,-0.322 -2.039,-0.322 -2.791,-0.322"
             style="fill:#000000;fill-opacity:1;fill-rule:nonzero;stroke:none"
             id="path5280" />
        </g>
      </g>
    </g>
  </g>
</svg>
