<?xml version="1.0" encoding="UTF-8" standalone="no"?>
<!-- Created with Inkscape (http://www.inkscape.org/) -->

<svg
   xmlns:dc="http://purl.org/dc/elements/1.1/"
   xmlns:cc="http://creativecommons.org/ns#"
   xmlns:rdf="http://www.w3.org/1999/02/22-rdf-syntax-ns#"
   xmlns:svg="http://www.w3.org/2000/svg"
   xmlns="http://www.w3.org/2000/svg"
   xmlns:sodipodi="http://sodipodi.sourceforge.net/DTD/sodipodi-0.dtd"
   xmlns:inkscape="http://www.inkscape.org/namespaces/inkscape"
   width="346.85324"
   height="97.410004"
   id="svg5594"
   version="1.1"
   inkscape:version="0.47 r22583"
   sodipodi:docname="kazamtextonly_white.svg">
  <defs
     id="defs5596" />
  <sodipodi:namedview
     id="base"
     pagecolor="#ffffff"
     bordercolor="#666666"
     borderopacity="1.0"
     inkscape:pageopacity="0.0"
     inkscape:pageshadow="2"
     inkscape:zoom="0.77472527"
     inkscape:cx="173.31315"
     inkscape:cy="52.492235"
     inkscape:current-layer="layer1"
     inkscape:document-units="px"
     showgrid="false"
     fit-margin-top="0"
     fit-margin-left="0"
     fit-margin-right="0"
     fit-margin-bottom="0"
     inkscape:window-width="1024"
     inkscape:window-height="714"
     inkscape:window-x="1024"
     inkscape:window-y="24"
     inkscape:window-maximized="1" />
  <metadata
     id="metadata5599">
    <rdf:RDF>
      <cc:Work
         rdf:about="">
        <dc:format>image/svg+xml</dc:format>
        <dc:type
           rdf:resource="http://purl.org/dc/dcmitype/StillImage" />
        <dc:title />
      </cc:Work>
    </rdf:RDF>
  </metadata>
  <g
     id="layer1"
     inkscape:label="Layer 1"
     inkscape:groupmode="layer"
     transform="translate(-146.68685,-195.08223)">
    <path
       style="fill:#ffffff;fill-opacity:1;fill-rule:nonzero;stroke:none"
       d="M 42.4375 0 L 19.9375 3.03125 L 0 96.59375 L 21.875 96.59375 L 29.625 60.03125 C 31.99 58.5025 34.12375 57.59375 37.09375 57.59375 C 40.0825 57.59375 42 60.2025 42 64.25 C 42 65.255 41.865 66.35875 41.625 67.4375 L 40.15625 73.59375 C 39.50625 76.06375 39.1875 78.5425 39.1875 81 C 39.1875 91.06125 45.5725 96.59375 57.1875 96.59375 C 61.13625 96.59375 65.66875 94.36625 70.96875 89.78125 C 73.21125 93.54 77.585 97.40625 86.15625 97.40625 C 92.6975 97.40625 98.675 94.21375 103.90625 87.875 C 106.025 93.53875 110.83 96.59375 117.6875 96.59375 C 123.31625 96.59375 129.03375 95.00875 132.8125 83.40625 L 133.625 80.9375 L 131.1875 81.84375 C 130.3275 82.16625 128.975 82.15625 128.15625 82.15625 C 125.58125 82.15625 124.5625 81.13875 124.5625 78.46875 C 124.5625 77.2625 124.765 75.98 125.21875 74.15625 L 135.1875 27.0625 L 113.46875 27.0625 L 112.875 29.65625 C 110.3975 28.08125 107.455 27.1875 104.6875 27.1875 C 77.85875 27.1875 68.28125 54.0125 68.28125 79.125 C 68.28125 79.9425 68.32375 80.77 68.40625 81.59375 C 67.82125 81.79875 67.265 81.90625 66.71875 81.90625 C 61.685 81.90625 61.28125 79.9825 61.28125 78.1875 C 61.28125 77.08 61.4825 75.74125 61.90625 74.1875 L 63.78125 66.5625 C 64.065 65.42375 64.21875 64.125 64.21875 62.90625 C 64.21875 53.48125 55.8975 45.7825 48.53125 45.0625 L 75.25 27.0625 L 56.65625 27.0625 C 56.0825 27.0625 56.1 27.05625 46.65625 34.375 C 44.14625 36.32 38.29625 40.84875 32.75 45.25 L 42.4375 0 z M 152.96875 27.0625 C 140.4775 27.0625 136 34.1475 136 40.78125 C 136 45.92875 139.25625 49.8125 143.5625 49.8125 C 149.72625 49.8125 153.28125 46.40875 153.28125 40.5 C 153.28125 38.42625 152.5025 36.73 151.34375 35.90625 C 152.0975 35.255 154.04375 34.90625 157.125 34.90625 C 159.55625 34.90625 162.31125 34.99755 164.78125 35.09375 L 129.46875 96.59375 L 167.71875 96.59375 C 175.26 96.59375 180.8275 93.80125 183.28125 88.9375 C 186.12875 94.4325 191.555 97.40625 198.9375 97.40625 C 205.5075 97.40625 211.50125 94.17625 216.75 87.78125 C 219.205 93.57 224.96625 96.59375 233.5625 96.59375 C 236.85125 96.59375 240.66125 95.075 245.1875 91.9375 L 244.21875 96.59375 L 266.0625 96.59375 L 277.71875 41.9375 C 280.2175 40.255 282.17375 39.59375 284.78125 39.59375 C 287.77 39.59375 289.6875 42.23375 289.6875 46.28125 C 289.6875 47.2875 289.55875 48.39125 289.3125 49.5 L 279.34375 96.59375 L 301.34375 96.59375 L 311.5 48.46875 C 311.6375 47.50375 311.78125 46.49875 311.78125 45.46875 C 311.78125 44.175 311.61375 42.785 311.28125 41.25 C 313.39375 40.07625 315.1725 39.59375 317.375 39.59375 C 320.3625 39.59375 322.28125 42.23375 322.28125 46.28125 C 322.28125 47.295 322.15125 48.3975 321.90625 49.5 L 316.8125 73.625 C 316.23875 76.35 315.96875 78.56625 315.96875 80.75 C 315.96875 91.13125 321.14125 96.59375 330.90625 96.59375 C 336.535 96.59375 342.28125 95.00875 346.0625 83.40625 L 346.84375 80.9375 L 344.40625 81.84375 C 343.54375 82.16625 342.19375 82.15625 341.375 82.15625 C 338.11375 82.15625 337.65625 80.76 337.65625 79.25 C 337.65625 77.65125 339.73625 68.405 341.40625 60.96875 C 342.68875 55.26 343.8075 50.33625 344.09375 48.4375 L 344.125 48.03125 C 344.24375 47.09125 344.375 46.20625 344.375 45.1875 C 344.375 34.9675 335.39875 27.0625 327.6875 27.0625 C 322.15125 27.0625 316.06875 29.59375 308.59375 35.0625 C 305.31125 30.215 300.0225 27.0625 295.09375 27.0625 C 290.5275 27.0625 285.35125 28.93 279.65625 32.625 L 280.8125 27.0625 L 258.96875 27.0625 L 247.65625 80.3125 C 245.83 81.39125 244.3225 81.90625 243.0625 81.90625 C 238.02625 81.90625 237.625 80.00875 237.625 78.0625 C 237.625 76.97125 237.87625 75.52375 238.125 74.15625 L 248.09375 27.0625 L 226.25 27.0625 L 225.65625 29.65625 C 223.17875 28.08125 220.235 27.1875 217.46875 27.1875 C 192.07875 27.1875 182.13125 51.41 181.15625 75.1875 C 179.98375 74.33125 178.59375 73.84375 177.09375 73.84375 C 170.9375 73.84375 167.25 77.375 167.25 83.28125 C 167.25 85.4475 168.16625 87.02375 169.3125 87.78125 C 168.54875 88.425 166.62375 88.75 163.5625 88.75 C 161.07375 88.75 158.375 88.6612 155.875 88.5625 L 191.1875 27.0625 L 152.96875 27.0625 z M 105.75 37.1875 C 106.88875 37.1875 108.99 37.41375 110.9375 38.84375 L 103.59375 73.5625 C 103.21375 74.95625 102.96125 76.59625 102.90625 77.78125 C 99.96875 81.82375 97.49875 83.78125 95.40625 83.78125 C 91.01375 83.78125 88.90625 81.06625 88.90625 75.5 C 88.90625 58.25375 96.6725 37.1875 105.75 37.1875 z M 218.53125 37.1875 C 219.67 37.1875 221.77 37.41375 223.71875 38.84375 L 216.375 73.59375 C 215.99375 75.135 215.71125 76.5725 215.5625 77.875 C 212.85625 81.79375 210.375 83.78125 208.1875 83.78125 C 203.7975 83.78125 201.6875 81.06625 201.6875 75.5 C 201.6875 58.25375 209.455 37.1875 218.53125 37.1875 z "
       transform="translate(146.68685,195.08223)"
       id="path5212" />
  </g>
</svg>
