<?xml version="1.0" encoding="UTF-8" standalone="no"?>
<!-- Created with Inkscape (http://www.inkscape.org/) -->

<svg
   xmlns:dc="http://purl.org/dc/elements/1.1/"
   xmlns:cc="http://creativecommons.org/ns#"
   xmlns:rdf="http://www.w3.org/1999/02/22-rdf-syntax-ns#"
   xmlns:svg="http://www.w3.org/2000/svg"
   xmlns="http://www.w3.org/2000/svg"
   xmlns:sodipodi="http://sodipodi.sourceforge.net/DTD/sodipodi-0.dtd"
   xmlns:inkscape="http://www.inkscape.org/namespaces/inkscape"
   width="346.85324"
   height="97.410004"
   id="svg5594"
   version="1.1"
   inkscape:version="0.48.0 r9654"
   sodipodi:docname="New document 14">
  <defs
     id="defs5596">
    <clipPath
       clipPathUnits="userSpaceOnUse"
       id="clipPath5206">
      <path
         inkscape:connector-curvature="0"
         d="M 0,480 640,480 640,0 0,0 0,480 z"
         id="path5208" />
    </clipPath>
  </defs>
  <sodipodi:namedview
     id="base"
     pagecolor="#ffffff"
     bordercolor="#666666"
     borderopacity="1.0"
     inkscape:pageopacity="0.0"
     inkscape:pageshadow="2"
     inkscape:zoom="0.77472527"
     inkscape:cx="173.31315"
     inkscape:cy="52.492235"
     inkscape:current-layer="layer1"
     inkscape:document-units="px"
     showgrid="false"
     fit-margin-top="0"
     fit-margin-left="0"
     fit-margin-right="0"
     fit-margin-bottom="0"
     inkscape:window-width="1280"
     inkscape:window-height="919"
     inkscape:window-x="0"
     inkscape:window-y="1"
     inkscape:window-maximized="1" />
  <metadata
     id="metadata5599">
    <rdf:RDF>
      <cc:Work
         rdf:about="">
        <dc:format>image/svg+xml</dc:format>
        <dc:type
           rdf:resource="http://purl.org/dc/dcmitype/StillImage" />
        <dc:title></dc:title>
      </cc:Work>
    </rdf:RDF>
  </metadata>
  <g
     id="layer1"
     inkscape:label="Layer 1"
     inkscape:groupmode="layer"
     transform="translate(-146.68685,-195.08223)">
    <g
       transform="matrix(1.25,0,0,-1.25,-80.110771,704.81561)"
       id="g5202">
      <g
         id="g5204"
         clip-path="url(#clipPath5206)">
        <g
           id="g5210"
           transform="translate(266.0361,378.0317)">
          <path
             d="m 0,0 c -7.262,0 -13.483,-16.854 -13.483,-30.651 0,-4.453 1.708,-6.619 5.222,-6.619 1.674,0 3.632,1.573 5.982,4.807 0.044,0.948 0.259,2.249 0.563,3.364 L 4.151,-1.326 C 2.593,-0.182 0.911,0 0,0 m -15.665,-48.173 c -6.857,0 -10.37,3.091 -12.164,6.098 -4.24,-3.668 -7.849,-5.455 -11.008,-5.455 -9.292,0 -14.41,4.432 -14.41,12.481 0,1.966 0.263,3.965 0.783,5.941 l 1.175,4.912 c 0.192,0.863 0.295,1.753 0.295,2.557 0,3.238 -1.545,5.33 -3.936,5.33 -2.376,0 -4.081,-0.747 -5.973,-1.97 l -6.199,-29.251 -17.496,0 15.962,74.855 17.986,2.43 -7.758,-36.21 c 4.437,3.521 9.119,7.16 11.127,8.716 7.555,5.855 7.555,5.855 8.014,5.855 L -24.41,8.115 -45.778,-6.306 c 5.893,-0.576 12.555,-6.719 12.555,-14.259 0,-0.975 -0.125,-2.013 -0.352,-2.924 l -1.501,-6.112 c -0.339,-1.243 -0.507,-2.31 -0.507,-3.196 0,-1.436 0.337,-2.969 4.364,-2.969 0.437,0 0.883,0.08 1.351,0.244 -0.066,0.659 -0.1,1.32 -0.1,1.974 0,20.09 7.647,41.556 29.11,41.556 2.214,0 4.571,-0.726 6.553,-1.986 l 0.483,2.093 17.372,0 -7.981,-37.684 c -0.363,-1.459 -0.514,-2.478 -0.514,-3.443 0,-2.136 0.802,-2.968 2.862,-2.968 0.655,0 1.75,0 2.438,0.258 l 1.946,0.73 -0.643,-1.976 C 18.635,-46.25 14.052,-47.53 9.549,-47.53 c -5.486,0 -9.337,2.466 -11.032,6.997 -4.185,-5.071 -8.949,-7.64 -14.182,-7.64"
             style="fill:#ffffff;fill-opacity:1;fill-rule:nonzero;stroke:none"
             id="path5212"
             inkscape:connector-curvature="0" />
        </g>
        <g
           id="g5214"
           transform="translate(356.2617,378.0317)">
          <path
             d="m 0,0 c -7.261,0 -13.482,-16.854 -13.482,-30.651 0,-4.453 1.708,-6.619 5.22,-6.619 1.75,0 3.735,1.589 5.9,4.724 0.119,1.042 0.334,2.192 0.639,3.425 L 4.152,-1.326 C 2.593,-0.182 0.911,0 0,0 m -15.664,-48.173 c -5.906,0 -10.267,2.384 -12.545,6.78 -1.963,-3.891 -6.416,-6.137 -12.449,-6.137 l -30.588,0 28.256,49.208 c -1.976,0.077 -4.199,0.146 -6.144,0.146 -2.465,0 -4.009,-0.262 -4.612,-0.783 0.927,-0.659 1.535,-2.03 1.535,-3.689 0,-4.727 -2.828,-7.438 -7.759,-7.438 -3.445,0 -6.043,3.105 -6.043,7.223 0,5.307 3.561,10.978 13.554,10.978 l 30.589,0 -28.259,-49.208 c 2,-0.079 4.154,-0.145 6.145,-0.145 2.449,0 3.989,0.259 4.6,0.774 -0.917,0.606 -1.63,1.857 -1.63,3.59 0,4.725 2.941,7.545 7.866,7.545 1.2,0 2.312,-0.37 3.25,-1.055 0.78,19.022 8.729,38.392 29.041,38.392 2.213,0 4.57,-0.726 6.552,-1.986 l 0.485,2.093 17.478,0 -7.98,-37.684 c -0.199,-1.094 -0.408,-2.247 -0.408,-3.12 0,-1.557 0.336,-3.077 4.365,-3.077 1.008,0 2.213,0.42 3.674,1.283 l 9.031,42.598 17.488,0 -0.924,-4.452 c 4.556,2.956 8.703,4.452 12.356,4.452 3.943,0 8.159,-2.541 10.785,-6.419 5.98,4.375 10.856,6.419 15.285,6.419 6.169,0 13.34,-6.342 13.34,-14.518 0,-0.815 -0.089,-1.526 -0.184,-2.278 l -0.039,-0.312 c -0.229,-1.519 -1.116,-5.463 -2.142,-10.03 -1.336,-5.949 -3,-13.352 -3,-14.631 0,-1.208 0.359,-2.326 2.968,-2.326 0.655,0 1.75,0 2.44,0.258 l 1.946,0.73 -0.643,-1.976 C 98.991,-46.25 94.407,-47.53 89.904,-47.53 c -7.812,0 -11.941,4.39 -11.941,12.695 0,1.747 0.205,3.499 0.664,5.679 l 4.078,19.312 c 0.196,0.882 0.299,1.771 0.299,2.582 0,3.238 -1.544,5.33 -3.934,5.33 -1.762,0 -3.178,-0.375 -4.868,-1.314 0.266,-1.228 0.396,-2.337 0.396,-3.372 0,-0.824 -0.115,-1.623 -0.225,-2.395 l -8.118,-38.517 -17.603,0 7.981,37.686 c 0.197,0.887 0.301,1.777 0.301,2.582 0,3.238 -1.545,5.33 -3.936,5.33 -2.086,0 -3.65,-0.506 -5.649,-1.852 l -9.313,-43.746 -17.493,0 0.792,3.735 c -3.621,-2.51 -6.686,-3.735 -9.317,-3.735 -6.877,0 -11.482,2.432 -13.446,7.063 -4.199,-5.116 -8.98,-7.706 -14.236,-7.706"
             style="fill:#ffffff;fill-opacity:1;fill-rule:nonzero;stroke:none"
             id="path5216"
             inkscape:connector-curvature="0" />
        </g>
      </g>
    </g>
  </g>
</svg>
