<?xml version="1.0" encoding="UTF-8" standalone="no"?>
<!-- Created with Inkscape (http://www.inkscape.org/) -->

<svg
   xmlns:dc="http://purl.org/dc/elements/1.1/"
   xmlns:cc="http://creativecommons.org/ns#"
   xmlns:rdf="http://www.w3.org/1999/02/22-rdf-syntax-ns#"
   xmlns:svg="http://www.w3.org/2000/svg"
   xmlns="http://www.w3.org/2000/svg"
   xmlns:sodipodi="http://sodipodi.sourceforge.net/DTD/sodipodi-0.dtd"
   xmlns:inkscape="http://www.inkscape.org/namespaces/inkscape"
   width="48"
   height="48"
   id="svg27665"
   version="1.1"
   inkscape:version="0.48.2 r9819"
   sodipodi:docname="fullscreen.svg">
  <defs
     id="defs27667" />
  <sodipodi:namedview
     id="base"
     pagecolor="#ffffff"
     bordercolor="#666666"
     borderopacity="1.0"
     inkscape:pageopacity="0.0"
     inkscape:pageshadow="2"
     inkscape:zoom="5.6568542"
     inkscape:cx="78.650472"
     inkscape:cy="22.307964"
     inkscape:document-units="px"
     inkscape:current-layer="layer1"
     showgrid="false"
     inkscape:window-width="1680"
     inkscape:window-height="985"
     inkscape:window-x="-8"
     inkscape:window-y="38"
     inkscape:window-maximized="1"
     inkscape:snap-bbox="true"
     inkscape:bbox-paths="true"
     inkscape:bbox-nodes="true"
     inkscape:snap-bbox-edge-midpoints="true"
     inkscape:snap-bbox-midpoints="true"
     inkscape:object-paths="true"
     inkscape:snap-intersection-paths="true"
     inkscape:object-nodes="true"
     inkscape:snap-smooth-nodes="true"
     inkscape:snap-midpoints="true"
     inkscape:snap-object-midpoints="true"
     inkscape:snap-center="true"
     inkscape:snap-global="false"
     showguides="true"
     inkscape:guide-bbox="true"
     fit-margin-top="0"
     fit-margin-left="0"
     fit-margin-right="0"
     fit-margin-bottom="0"
     inkscape:showpageshadow="false" />
  <metadata
     id="metadata27670">
    <rdf:RDF>
      <cc:Work
         rdf:about="">
        <dc:format>image/svg+xml</dc:format>
        <dc:type
           rdf:resource="http://purl.org/dc/dcmitype/StillImage" />
        <dc:title />
      </cc:Work>
    </rdf:RDF>
  </metadata>
  <g
     inkscape:label="Camada 1"
     inkscape:groupmode="layer"
     id="layer1"
     transform="translate(3162.1675,-1381.2535)">
    <path
       style="font-size:medium;font-style:normal;font-variant:normal;font-weight:normal;font-stretch:normal;text-indent:0;text-align:start;text-decoration:none;line-height:normal;letter-spacing:normal;word-spacing:normal;text-transform:none;direction:ltr;block-progression:tb;writing-mode:lr-tb;text-anchor:start;baseline-shift:baseline;color:#000000;fill:#3a3935;fill-opacity:1;stroke:none;stroke-width:2;marker:none;visibility:visible;display:inline;overflow:visible;enable-background:accumulate;font-family:Sans;-inkscape-font-specification:Sans"
       d="m -3157.1138,1386.0558 a 1.4646366,1.4646366 0 0 0 -1.0526,1.4645 l 0,26.6354 a 1.4646366,1.4646366 0 0 0 1.4645,1.4645 l 13.9584,0 -0.4118,5.7665 -3.8444,0 -0.7322,3.0662 19.1299,0 -0.7322,-3.0662 -3.8443,0 -0.4119,-5.7665 13.9584,0 a 1.4646366,1.4646366 0 0 0 1.4645,-1.4645 l 0,-26.6354 a 1.4646366,1.4646366 0 0 0 -1.4645,-1.4645 l -37.0699,0 a 1.4646366,1.4646366 0 0 0 -0.1373,0 1.4646366,1.4646366 0 0 0 -0.1373,0 1.4646366,1.4646366 0 0 0 -0.1373,0 z m 1.8764,2.929 34.1409,0 0,23.7064 -34.1409,0 0,-23.7064 z m 1.7848,1.4645 a 0.55109819,0.55109819 0 0 0 -0.3203,0.5491 l 0,5.1715 a 0.55109819,0.55109819 0 0 0 0.961,0.4119 l 5.1715,-5.2172 a 0.55109819,0.55109819 0 0 0 -0.3661,-0.9153 l -5.2172,0 a 0.55109819,0.55109819 0 0 0 -0.1373,0 0.55109819,0.55109819 0 0 0 -0.092,0 z m 24.9879,0 a 0.55109819,0.55109819 0 0 0 -0.2288,0.9153 l 5.2172,5.2172 a 0.55109819,0.55109819 0 0 0 0.9154,-0.4119 l 0,-5.1715 a 0.55109819,0.55109819 0 0 0 -0.3662,-0.5491 0.55109819,0.55109819 0 0 0 -0.045,0 0.55109819,0.55109819 0 0 0 -0.1373,0 l -5.1715,0 a 0.55109819,0.55109819 0 0 0 -0.183,0 z m -24.8047,14.4618 a 0.55109819,0.55109819 0 0 0 -0.5035,0.5492 l 0,5.1715 a 0.55109819,0.55109819 0 0 0 0.4119,0.5492 0.55109819,0.55109819 0 0 0 0.1373,0 l 5.2172,0 a 0.55109819,0.55109819 0 0 0 0.3661,-0.9153 l -5.1715,-5.1715 a 0.55109819,0.55109819 0 0 0 -0.4575,-0.1831 z m 30.0678,0 a 0.55109819,0.55109819 0 0 0 -0.2747,0.1831 l -5.2172,5.1715 a 0.55109819,0.55109819 0 0 0 0.4118,0.9153 l 5.1715,0 a 0.55109819,0.55109819 0 0 0 0.1373,0 0.55109819,0.55109819 0 0 0 0.045,0 0.55109819,0.55109819 0 0 0 0.3662,-0.5492 l 0,-5.1715 a 0.55109819,0.55109819 0 0 0 -0.6408,-0.5492 z"
       id="path3093"
       inkscape:connector-curvature="0" />
  </g>
</svg>
