<?xml version="1.0" encoding="UTF-8" standalone="no"?>
<!-- Created with Inkscape (http://www.inkscape.org/) -->

<svg
   xmlns:dc="http://purl.org/dc/elements/1.1/"
   xmlns:cc="http://creativecommons.org/ns#"
   xmlns:rdf="http://www.w3.org/1999/02/22-rdf-syntax-ns#"
   xmlns:svg="http://www.w3.org/2000/svg"
   xmlns="http://www.w3.org/2000/svg"
   xmlns:sodipodi="http://sodipodi.sourceforge.net/DTD/sodipodi-0.dtd"
   xmlns:inkscape="http://www.inkscape.org/namespaces/inkscape"
   width="48"
   height="48"
   id="svg27665"
   version="1.1"
   inkscape:version="0.48.2 r9819"
   sodipodi:docname="screenshot-1.svg">
  <defs
     id="defs27667" />
  <sodipodi:namedview
     id="base"
     pagecolor="#ffffff"
     bordercolor="#666666"
     borderopacity="1.0"
     inkscape:pageopacity="0.0"
     inkscape:pageshadow="2"
     inkscape:zoom="8"
     inkscape:cx="35.377119"
     inkscape:cy="14.807852"
     inkscape:document-units="px"
     inkscape:current-layer="layer1"
     showgrid="false"
     inkscape:window-width="1680"
     inkscape:window-height="985"
     inkscape:window-x="-8"
     inkscape:window-y="38"
     inkscape:window-maximized="1"
     inkscape:snap-bbox="true"
     inkscape:bbox-paths="true"
     inkscape:bbox-nodes="true"
     inkscape:snap-bbox-edge-midpoints="true"
     inkscape:snap-bbox-midpoints="true"
     inkscape:object-paths="true"
     inkscape:snap-intersection-paths="true"
     inkscape:object-nodes="true"
     inkscape:snap-smooth-nodes="true"
     inkscape:snap-midpoints="true"
     inkscape:snap-object-midpoints="true"
     inkscape:snap-center="true"
     inkscape:snap-global="true"
     showguides="false"
     inkscape:guide-bbox="true"
     fit-margin-top="0"
     fit-margin-left="0"
     fit-margin-right="0"
     fit-margin-bottom="0"
     inkscape:showpageshadow="false">
    <sodipodi:guide
       orientation="0,1"
       position="17.854551,40.268826"
       id="guide3791" />
    <sodipodi:guide
       orientation="1,0"
       position="42.5356,43.1977"
       id="guide3799" />
  </sodipodi:namedview>
  <metadata
     id="metadata27670">
    <rdf:RDF>
      <cc:Work
         rdf:about="">
        <dc:format>image/svg+xml</dc:format>
        <dc:type
           rdf:resource="http://purl.org/dc/dcmitype/StillImage" />
        <dc:title />
      </cc:Work>
    </rdf:RDF>
  </metadata>
  <g
     inkscape:label="Camada 1"
     inkscape:groupmode="layer"
     id="layer1"
     transform="translate(3162.1675,-1381.2535)">
    <path
       style="fill:#dfdbd2;fill-opacity:1;fill-rule:nonzero;stroke:none"
       d="m -3143.2295,1386.0348 c -0.3737,0 -0.6875,0.345 -0.6875,0.7188 l 0,2.25 -11.6562,0 -1.125,0 -0.125,0 -0.1563,0 -0.125,0 c -0.6216,0.1817 -1.0884,0.8216 -1.0625,1.4687 l 0,23.7188 c 10e-5,0.7668 0.702,1.4686 1.4688,1.4687 l 13.9687,0 -0.4375,5.75 -3.8437,0 -0.7188,3.0625 19.125,0 -0.7187,-3.0625 -3.8438,0 -0.4375,-5.75 13.9688,0 c 0.7668,-10e-5 1.4686,-0.7019 1.4687,-1.4687 l 0,-23.7188 c -1e-4,-0.7667 -0.702,-1.4686 -1.4687,-1.4687 l -1.0938,0 -11.5,0 0,-2.25 c 0,-0.3738 -0.3138,-0.7188 -0.6875,-0.7188 l -10.3125,0 z m -4.7187,0.4688 c -0.3739,0 -0.6875,0.3449 -0.6875,0.7187 l 0,0.1563 c 0,0.3737 0.3135,0.6875 0.6875,0.6875 l 2.1875,0 c 0.3738,0 0.6875,-0.3138 0.6875,-0.6875 l 0,-0.1563 c 0,-0.3738 -0.3136,-0.7187 -0.6875,-0.7187 l -2.1875,0 z m -7.2813,5.4375 13.4063,0 7.4687,0 13.25,0 0,1.4062 0,1.7813 0,3.4687 -9.2187,0 c 0.3395,0.6225 0.5974,1.3006 0.7812,2 l 8.4375,0 0,6.3438 0,5.7812 -34.125,0 0,-5.7812 0,-6.3438 8.4688,0 c 0.1837,-0.698 0.4424,-1.3787 0.7812,-2 l -9.25,0 0,-3.4687 0,-1.7813 0,-1.4062 z m 17.0625,3.125 c -4.2683,0 -7.75,3.5129 -7.75,7.7812 0,4.2684 3.4817,7.75 7.75,7.75 4.2684,0 7.75,-3.4816 7.75,-7.75 0,-4.2683 -3.4816,-7.7812 -7.75,-7.7812 z m 0,2.0312 c 3.1875,0 5.75,2.5625 5.75,5.75 0,3.1875 -2.5625,5.7188 -5.75,5.7188 -3.1875,0 -5.75,-2.5313 -5.75,-5.7188 0,-3.1875 2.5625,-5.75 5.75,-5.75 z"
       id="path3105"
       inkscape:connector-curvature="0" />
  </g>
</svg>
