<?xml version="1.0" encoding="UTF-8" standalone="no"?>
<!-- Created with Inkscape (http://www.inkscape.org/) -->

<svg
   xmlns:dc="http://purl.org/dc/elements/1.1/"
   xmlns:cc="http://creativecommons.org/ns#"
   xmlns:rdf="http://www.w3.org/1999/02/22-rdf-syntax-ns#"
   xmlns:svg="http://www.w3.org/2000/svg"
   xmlns="http://www.w3.org/2000/svg"
   xmlns:sodipodi="http://sodipodi.sourceforge.net/DTD/sodipodi-0.dtd"
   xmlns:inkscape="http://www.inkscape.org/namespaces/inkscape"
   width="48"
   height="48"
   id="svg27665"
   version="1.1"
   inkscape:version="0.48.2 r9819"
   sodipodi:docname="screencast.svg">
  <defs
     id="defs27667" />
  <sodipodi:namedview
     id="base"
     pagecolor="#ffffff"
     bordercolor="#666666"
     borderopacity="1.0"
     inkscape:pageopacity="0.0"
     inkscape:pageshadow="2"
     inkscape:zoom="4"
     inkscape:cx="74.284469"
     inkscape:cy="19.584488"
     inkscape:document-units="px"
     inkscape:current-layer="layer1"
     showgrid="false"
     inkscape:window-width="1680"
     inkscape:window-height="985"
     inkscape:window-x="-8"
     inkscape:window-y="38"
     inkscape:window-maximized="1"
     inkscape:snap-bbox="true"
     inkscape:bbox-paths="true"
     inkscape:bbox-nodes="true"
     inkscape:snap-bbox-edge-midpoints="true"
     inkscape:snap-bbox-midpoints="true"
     inkscape:object-paths="true"
     inkscape:snap-intersection-paths="true"
     inkscape:object-nodes="true"
     inkscape:snap-smooth-nodes="true"
     inkscape:snap-midpoints="true"
     inkscape:snap-object-midpoints="true"
     inkscape:snap-center="true"
     inkscape:snap-global="true"
     showguides="true"
     inkscape:guide-bbox="true"
     fit-margin-top="0"
     fit-margin-left="0"
     fit-margin-right="0"
     fit-margin-bottom="0"
     inkscape:showpageshadow="false" />
  <metadata
     id="metadata27670">
    <rdf:RDF>
      <cc:Work
         rdf:about="">
        <dc:format>image/svg+xml</dc:format>
        <dc:type
           rdf:resource="http://purl.org/dc/dcmitype/StillImage" />
        <dc:title />
      </cc:Work>
    </rdf:RDF>
  </metadata>
  <g
     inkscape:label="Camada 1"
     inkscape:groupmode="layer"
     id="layer1"
     transform="translate(3162.1675,-1381.2535)">
    <path
       style="font-size:medium;font-style:normal;font-variant:normal;font-weight:normal;font-stretch:normal;text-indent:0;text-align:start;text-decoration:none;line-height:normal;letter-spacing:normal;word-spacing:normal;text-transform:none;direction:ltr;block-progression:tb;writing-mode:lr-tb;text-anchor:start;baseline-shift:baseline;color:#000000;fill:#dfdbd2;fill-opacity:1;stroke:none;stroke-width:2;marker:none;visibility:visible;display:inline;overflow:visible;enable-background:accumulate;font-family:Sans;-inkscape-font-specification:Sans"
       d="M 5.0625 4.8125 C 4.4409 4.9942 3.9741 5.63415 4 6.28125 L 4 32.90625 C 4.0001 33.67305 4.70195 34.3749 5.46875 34.375 L 19.4375 34.375 L 19 40.125 L 15.15625 40.125 L 14.4375 43.1875 L 33.5625 43.1875 L 32.84375 40.125 L 29 40.125 L 28.5625 34.375 L 42.53125 34.375 C 43.29805 34.3749 43.9999 33.67305 44 32.90625 L 44 6.28125 C 43.9999 5.51455 43.29795 4.8126 42.53125 4.8125 L 5.46875 4.8125 L 5.34375 4.8125 L 5.1875 4.8125 L 5.0625 4.8125 z M 6.9375 7.71875 L 41.0625 7.71875 L 41.0625 31.4375 L 6.9375 31.4375 L 6.9375 7.71875 z M 7.90625 8.75 L 7.90625 13.40625 L 13.75 13.40625 L 13.75 8.75 L 7.90625 8.75 z M 34.21875 8.75 L 34.21875 13.40625 L 40.0625 13.40625 L 40.0625 8.75 L 34.21875 8.75 z M 7.90625 14.40625 L 7.90625 19.09375 L 13.75 19.09375 L 13.75 14.40625 L 7.90625 14.40625 z M 34.21875 14.40625 L 34.21875 19.09375 L 40.0625 19.09375 L 40.0625 14.40625 L 34.21875 14.40625 z M 7.90625 20.09375 L 7.90625 24.75 L 13.75 24.75 L 13.75 20.09375 L 7.90625 20.09375 z M 34.21875 20.09375 L 34.21875 24.75 L 40.0625 24.75 L 40.0625 20.09375 L 34.21875 20.09375 z M 7.90625 25.75 L 7.90625 30.4375 L 13.75 30.4375 L 13.75 25.75 L 7.90625 25.75 z M 34.21875 25.75 L 34.21875 30.4375 L 40.0625 30.4375 L 40.0625 25.75 L 34.21875 25.75 z "
       transform="translate(-3162.1675,1381.2535)"
       id="path3767" />
  </g>
</svg>
