<?xml version="1.0" encoding="UTF-8" standalone="no"?>
<!-- Created with Inkscape (http://www.inkscape.org/) -->

<svg
   xmlns:dc="http://purl.org/dc/elements/1.1/"
   xmlns:cc="http://creativecommons.org/ns#"
   xmlns:rdf="http://www.w3.org/1999/02/22-rdf-syntax-ns#"
   xmlns:svg="http://www.w3.org/2000/svg"
   xmlns="http://www.w3.org/2000/svg"
   xmlns:sodipodi="http://sodipodi.sourceforge.net/DTD/sodipodi-0.dtd"
   xmlns:inkscape="http://www.inkscape.org/namespaces/inkscape"
   width="48"
   height="48"
   id="svg27665"
   version="1.1"
   inkscape:version="0.48.2 r9819"
   sodipodi:docname="screenshot-2.svg">
  <defs
     id="defs27667" />
  <sodipodi:namedview
     id="base"
     pagecolor="#ffffff"
     bordercolor="#666666"
     borderopacity="1.0"
     inkscape:pageopacity="0.0"
     inkscape:pageshadow="2"
     inkscape:zoom="8"
     inkscape:cx="35.377119"
     inkscape:cy="14.807852"
     inkscape:document-units="px"
     inkscape:current-layer="layer1"
     showgrid="false"
     inkscape:window-width="1680"
     inkscape:window-height="985"
     inkscape:window-x="-8"
     inkscape:window-y="38"
     inkscape:window-maximized="1"
     inkscape:snap-bbox="true"
     inkscape:bbox-paths="true"
     inkscape:bbox-nodes="true"
     inkscape:snap-bbox-edge-midpoints="true"
     inkscape:snap-bbox-midpoints="true"
     inkscape:object-paths="true"
     inkscape:snap-intersection-paths="true"
     inkscape:object-nodes="true"
     inkscape:snap-smooth-nodes="true"
     inkscape:snap-midpoints="true"
     inkscape:snap-object-midpoints="true"
     inkscape:snap-center="true"
     inkscape:snap-global="true"
     showguides="false"
     inkscape:guide-bbox="true"
     fit-margin-top="0"
     fit-margin-left="0"
     fit-margin-right="0"
     fit-margin-bottom="0"
     inkscape:showpageshadow="false">
    <sodipodi:guide
       orientation="0,1"
       position="17.854551,40.268826"
       id="guide3791" />
    <sodipodi:guide
       orientation="1,0"
       position="42.5356,43.1977"
       id="guide3799" />
  </sodipodi:namedview>
  <metadata
     id="metadata27670">
    <rdf:RDF>
      <cc:Work
         rdf:about="">
        <dc:format>image/svg+xml</dc:format>
        <dc:type
           rdf:resource="http://purl.org/dc/dcmitype/StillImage" />
        <dc:title />
      </cc:Work>
    </rdf:RDF>
  </metadata>
  <g
     inkscape:label="Camada 1"
     inkscape:groupmode="layer"
     id="layer1"
     transform="translate(3162.1675,-1381.2535)">
    <path
       style="fill:#dfdbd2;fill-opacity:1;fill-rule:nonzero;stroke:none"
       d="m -3157.1045,1386.0504 c -0.6216,0.1817 -1.0884,0.8216 -1.0625,1.4687 l 0,26.625 c 10e-5,0.7668 0.702,1.4687 1.4688,1.4688 l 13.9687,0 -0.4375,5.7812 -3.8437,0 -0.7188,3.0625 19.125,0 -0.7187,-3.0625 -3.8438,0 -0.4375,-5.7812 13.9688,0 c 0.7668,-10e-5 1.4686,-0.702 1.4687,-1.4688 l 0,-26.625 c -1e-4,-0.7667 -0.702,-1.4686 -1.4687,-1.4687 l -37.0625,0 -0.1563,0 -0.125,0 -0.125,0 z m 1.875,2.9375 34.125,0 0,4.3437 -11.125,0 0,-2.2812 c 0,-0.3738 -0.3138,-0.7188 -0.6875,-0.7188 l -10.3125,0 c -0.3737,0 -0.6875,0.345 -0.6875,0.7188 l 0,2.2812 -11.3125,0 0,-4.3437 z m 7.2813,1.8437 c -0.3739,0 -0.6875,0.3137 -0.6875,0.6875 l 0,0.1563 c 0,0.3737 0.3135,0.6875 0.6875,0.6875 l 2.1875,0 c 0.3738,0 0.6875,-0.3138 0.6875,-0.6875 l 0,-0.1563 c 0,-0.3738 -0.3136,-0.6875 -0.6875,-0.6875 l -2.1875,0 z m 9.8437,4.3438 c 3.9142,0 7.1563,3.1795 7.1563,7.0937 0,3.9141 -3.2421,7.125 -7.1563,7.125 -3.9141,0 -7.0937,-3.2109 -7.0937,-7.125 0,-3.9142 3.1796,-7.0937 7.0937,-7.0937 z m -0.5312,1.8125 c -2.6924,0.2694 -4.75,2.5118 -4.75,5.2812 0,2.9538 2.3273,5.3438 5.2812,5.3438 2.9539,0 5.3438,-2.39 5.3438,-5.3438 0,-2.9541 -2.3899,-5.2812 -5.3438,-5.2812 -0.1847,0 -0.3517,-0.019 -0.5312,0 z m -16.5938,0.6562 10.8438,0 c -0.4027,0.5464 -0.7483,1.1408 -1,1.7813 l -9.8438,0 0,-1.7813 z m 23.5,0 10.625,0 0,1.7813 -9.6562,0 c -0.2523,-0.6362 -0.5672,-1.2382 -0.9688,-1.7813 z m -23.5,13.5938 34.125,0 0,1.4375 -34.125,0 0,-1.4375 z"
       id="path3801"
       inkscape:connector-curvature="0" />
  </g>
</svg>
