<?xml version="1.0" encoding="UTF-8" standalone="no"?>
<!-- Created with Inkscape (http://www.inkscape.org/) -->

<svg
   xmlns:dc="http://purl.org/dc/elements/1.1/"
   xmlns:cc="http://creativecommons.org/ns#"
   xmlns:rdf="http://www.w3.org/1999/02/22-rdf-syntax-ns#"
   xmlns:svg="http://www.w3.org/2000/svg"
   xmlns="http://www.w3.org/2000/svg"
   xmlns:sodipodi="http://sodipodi.sourceforge.net/DTD/sodipodi-0.dtd"
   xmlns:inkscape="http://www.inkscape.org/namespaces/inkscape"
   width="48"
   height="48"
   id="svg27665"
   version="1.1"
   inkscape:version="0.48.2 r9819"
   sodipodi:docname="window.svg">
  <defs
     id="defs27667" />
  <sodipodi:namedview
     id="base"
     pagecolor="#ffffff"
     bordercolor="#666666"
     borderopacity="1.0"
     inkscape:pageopacity="0.0"
     inkscape:pageshadow="2"
     inkscape:zoom="4"
     inkscape:cx="8.7797725"
     inkscape:cy="23.165757"
     inkscape:document-units="px"
     inkscape:current-layer="layer1"
     showgrid="false"
     inkscape:window-width="1680"
     inkscape:window-height="985"
     inkscape:window-x="-8"
     inkscape:window-y="38"
     inkscape:window-maximized="1"
     inkscape:snap-bbox="true"
     inkscape:bbox-paths="true"
     inkscape:bbox-nodes="true"
     inkscape:snap-bbox-edge-midpoints="true"
     inkscape:snap-bbox-midpoints="true"
     inkscape:object-paths="true"
     inkscape:snap-intersection-paths="true"
     inkscape:object-nodes="true"
     inkscape:snap-smooth-nodes="true"
     inkscape:snap-midpoints="true"
     inkscape:snap-object-midpoints="true"
     inkscape:snap-center="true"
     inkscape:snap-global="false"
     showguides="true"
     inkscape:guide-bbox="true"
     fit-margin-top="0"
     fit-margin-left="0"
     fit-margin-right="0"
     fit-margin-bottom="0"
     inkscape:showpageshadow="false" />
  <metadata
     id="metadata27670">
    <rdf:RDF>
      <cc:Work
         rdf:about="">
        <dc:format>image/svg+xml</dc:format>
        <dc:type
           rdf:resource="http://purl.org/dc/dcmitype/StillImage" />
        <dc:title />
      </cc:Work>
    </rdf:RDF>
  </metadata>
  <g
     inkscape:label="Camada 1"
     inkscape:groupmode="layer"
     id="layer1"
     transform="translate(3162.1675,-1381.2535)">
    <path
       inkscape:connector-curvature="0"
       id="path3133"
       d="m -3156.886,1388.184 a 1.4646756,1.4646756 0 0 0 -1.2815,1.4645 l 0,0.5492 0,4.4394 0,26.2242 a 1.4646756,1.4646756 0 0 0 1.4645,1.4645 l 37.0709,0 a 1.4646756,1.4646756 0 0 0 1.4646,-1.4645 l 0,-31.2128 a 1.4646756,1.4646756 0 0 0 -1.4646,-1.4645 l -1.0984,0 -35.3776,0 -0.5949,0 a 1.4646756,1.4646756 0 0 0 -0.183,0 z m 2.8832,2.6544 c 0.8777,0 1.6019,0.7242 1.6019,1.6019 0,0.8776 -0.7242,1.6018 -1.6019,1.6018 -0.8777,0 -1.6018,-0.7242 -1.6018,-1.6018 0,-0.8777 0.7241,-1.6019 1.6018,-1.6019 z m 4.119,0 c 0.8777,0 1.6019,0.7242 1.6019,1.6019 0,0.8776 -0.7242,1.6018 -1.6019,1.6018 -0.8777,0 -1.5561,-0.7242 -1.5561,-1.6018 0,-0.8777 0.6784,-1.6019 1.5561,-1.6019 z m 4.1648,0 c 0.8776,0 1.5561,0.7242 1.5561,1.6019 0,0.8776 -0.6785,1.6018 -1.5561,1.6018 -0.8777,0 -1.6019,-0.7242 -1.6019,-1.6018 0,-0.8777 0.7242,-1.6019 1.6019,-1.6019 z m -9.5194,5.8124 34.1418,0 0,22.7459 -34.1418,0 0,-22.7459 z"
       style="font-size:medium;font-style:normal;font-variant:normal;font-weight:normal;font-stretch:normal;text-indent:0;text-align:start;text-decoration:none;line-height:normal;letter-spacing:normal;word-spacing:normal;text-transform:none;direction:ltr;block-progression:tb;writing-mode:lr-tb;text-anchor:start;baseline-shift:baseline;color:#000000;fill:#3a3935;fill-opacity:1;stroke:none;stroke-width:1.99999988000000006;marker:none;visibility:visible;display:inline;overflow:visible;enable-background:accumulate;font-family:Sans;-inkscape-font-specification:Sans" />
  </g>
</svg>
